<svg width="54" height="40" viewBox="0 0 54 40" fill="none" xmlns="http://www.w3.org/2000/svg">
<path d="M51.2987 24.2101C50.6891 23.7441 49.9793 23.4242 49.2246 23.2755C48.47 23.1269 47.6909 23.1534 46.9482 23.353L45.9869 23.5739C50.8269 19.1072 53.2748 14.6803 53.2748 10.3704C53.2748 4.7682 48.7374 0.208694 43.1586 0.208694C41.5852 0.198905 40.0312 0.553161 38.6198 1.24337C37.2084 1.93357 35.9784 2.94075 35.0273 4.185C34.0763 2.94075 32.8463 1.93357 31.4349 1.24337C30.0235 0.553161 28.4695 0.198905 26.8961 0.208694C21.3173 0.208694 16.7799 4.7682 16.7799 10.3704C16.7799 12.8843 17.5877 15.3386 19.2923 17.9607C17.895 18.1746 16.6036 18.8273 15.6072 19.823L10.4423 24.9502H3.87322C3.04697 24.9502 2.25455 25.276 1.6703 25.856C1.08604 26.436 0.757813 27.2226 0.757812 28.0429V36.8791C0.757812 37.6993 1.08604 38.486 1.6703 39.066C2.25455 39.646 3.04697 39.9718 3.87322 39.9718H27.0163C27.1258 39.9718 27.2349 39.9585 27.3412 39.932L41.5831 36.3975C41.6505 36.3799 41.7167 36.3577 41.7811 36.3313L50.4197 32.6819L50.4931 32.6488C51.2569 32.2701 51.9111 31.7047 52.3939 31.0057C52.8767 30.3067 53.1723 29.4972 53.2529 28.6535C53.3335 27.8098 53.1964 26.9596 52.8545 26.183C52.5126 25.4064 51.9772 24.729 51.2987 24.2146V24.2101ZM26.8961 2.85957C28.3645 2.84012 29.8054 3.25605 31.0343 4.05413C32.2632 4.85221 33.2243 5.99614 33.7945 7.33954C33.8951 7.58264 34.0662 7.79057 34.2862 7.9369C34.5061 8.08323 34.7648 8.16136 35.0296 8.16136C35.2943 8.16136 35.5531 8.08323 35.773 7.9369C35.9929 7.79057 36.164 7.58264 36.2646 7.33954C36.8349 5.99614 37.796 4.85221 39.0249 4.05413C40.2538 3.25605 41.6946 2.84012 43.163 2.85957C47.1953 2.85957 50.6044 6.29908 50.6044 10.3704C50.6044 14.8415 47.0039 19.8693 40.19 24.895L36.881 25.6505C37.211 24.7813 37.3238 23.8456 37.2095 22.9237C37.0953 22.0017 36.7576 21.121 36.2252 20.3571C35.6929 19.5932 34.9818 18.9689 34.1531 18.5377C33.3243 18.1064 32.4026 17.8812 31.4669 17.8812H22.4923C20.4205 15.1574 19.4503 12.7584 19.4503 10.3704C19.4503 6.29908 22.8594 2.85957 26.8961 2.85957ZM3.42817 36.8791V28.0429C3.42817 27.9257 3.47506 27.8133 3.55852 27.7305C3.64199 27.6476 3.75519 27.6011 3.87322 27.6011H9.65899V37.3209H3.87322C3.75519 37.3209 3.64199 37.2744 3.55852 37.1915C3.47506 37.1087 3.42817 36.9963 3.42817 36.8791ZM49.3315 30.2519L40.8309 33.8461L26.8516 37.3209H12.3293V26.8257L17.4943 21.6962C17.8654 21.3258 18.3069 21.0322 18.7932 20.8324C19.2794 20.6326 19.8008 20.5305 20.3271 20.5321H31.4669C32.2931 20.5321 33.0856 20.8579 33.6698 21.4379C34.2541 22.0179 34.5823 22.8045 34.5823 23.6247C34.5823 24.445 34.2541 25.2316 33.6698 25.8116C33.0856 26.3916 32.2931 26.7174 31.4669 26.7174H25.2361C24.8819 26.7174 24.5423 26.8571 24.2919 27.1056C24.0415 27.3542 23.9009 27.6913 23.9009 28.0429C23.9009 28.3944 24.0415 28.7315 24.2919 28.9801C24.5423 29.2287 24.8819 29.3683 25.2361 29.3683H32.357C32.4573 29.3684 32.5574 29.3573 32.6552 29.3352L47.5647 25.931L47.6181 25.9178C48.1792 25.7659 48.7771 25.8252 49.2969 26.0843C49.8167 26.3434 50.2218 26.784 50.4343 27.3214C50.6467 27.8589 50.6517 28.4554 50.4482 28.9963C50.2446 29.5372 49.847 29.9844 49.3315 30.2519Z" fill="#0052BD"/>
</svg>
