<svg width="39" height="28" viewBox="0 0 39 28" fill="none" xmlns="http://www.w3.org/2000/svg">
<path fill-rule="evenodd" clip-rule="evenodd" d="M23.9545 0H7.04545C5.17688 0 3.38484 0.737498 2.06357 2.05025C0.742287 3.36301 0 5.14348 0 7V21C0 22.8565 0.742287 24.637 2.06357 25.9497C3.38484 27.2625 5.17688 28 7.04545 28H23.9545C25.8231 28 27.6152 27.2625 28.9364 25.9497C30.2577 24.637 31 22.8565 31 21V7C31 5.14348 30.2577 3.36301 28.9364 2.05025C27.6152 0.737498 25.8231 0 23.9545 0ZM2.81818 7C2.81818 5.88609 3.26355 4.8178 4.05632 4.03015C4.84909 3.2425 5.92431 2.8 7.04545 2.8H23.9545C25.0757 2.8 26.1509 3.2425 26.9437 4.03015C27.7364 4.8178 28.1818 5.88609 28.1818 7V21C28.1818 22.1139 27.7364 23.1822 26.9437 23.9698C26.1509 24.7575 25.0757 25.2 23.9545 25.2H7.04545C5.92431 25.2 4.84909 24.7575 4.05632 23.9698C3.26355 23.1822 2.81818 22.1139 2.81818 21V7Z" fill="#0052BD"/>
<path fill-rule="evenodd" clip-rule="evenodd" d="M36.8819 3.22704L28.7006 8.64903C28.5105 8.77459 28.3539 8.9461 28.2446 9.14829C28.1353 9.35049 28.0768 9.57708 28.0743 9.80789L28.0001 17.1193C27.9973 17.3551 28.053 17.5878 28.162 17.7957C28.271 18.0037 28.4298 18.1803 28.6237 18.309L36.8764 23.773C37.0837 23.9106 37.3236 23.9887 37.5709 23.9989C37.8181 24.009 38.0634 23.951 38.281 23.8309C38.4985 23.7107 38.6801 23.5329 38.8067 23.3163C38.9333 23.0997 39 22.8522 39 22.6001V4.40269C39.0005 4.15034 38.9341 3.90253 38.8078 3.6855C38.6814 3.46846 38.4998 3.29028 38.2822 3.1698C38.0646 3.04933 37.819 2.99104 37.5715 3.00112C37.3241 3.01119 37.0839 3.08925 36.8764 3.22704M36.2555 20.0221L30.7583 16.3804L30.816 10.5861L36.2555 6.98353V20.0221Z" fill="#0052BD"/>
</svg>
