<svg width="40" height="42" viewBox="0 0 40 42" fill="none" xmlns="http://www.w3.org/2000/svg">
<path d="M10.7479 10.1613C10.7479 4.87624 14.8199 0.557373 19.8916 0.557373C24.9633 0.557373 29.0352 4.87624 29.0352 10.1613V11.2281H35.2773C35.6549 11.2284 36.0188 11.3689 36.2987 11.6223C36.5785 11.8757 36.7544 12.224 36.7921 12.5996L39.5352 40.0307C39.5565 40.2424 39.5332 40.4563 39.4668 40.6586C39.4004 40.8608 39.2923 41.0469 39.1496 41.2048C39.0069 41.3627 38.8327 41.489 38.6382 41.5755C38.4437 41.662 38.2333 41.7068 38.0204 41.707H1.76268C1.54982 41.7068 1.33938 41.662 1.14489 41.5755C0.950405 41.489 0.776196 41.3627 0.633488 41.2048C0.490779 41.0469 0.382737 40.8608 0.316321 40.6586C0.249905 40.4563 0.226588 40.2424 0.247873 40.0307L2.99098 12.5996C3.02873 12.224 3.20457 11.8757 3.48443 11.6223C3.7643 11.3689 4.12825 11.2284 4.50578 11.2281H10.7479V10.1613ZM13.7958 11.225H25.9873V10.1613C25.9873 6.5221 23.2381 3.60527 19.8916 3.60527C16.545 3.60527 13.7958 6.5221 13.7958 10.1613V11.2281V11.225ZM10.7479 14.2729H5.88648L3.44816 38.6561H36.3349L33.8936 14.2729H29.0352V18.8447C29.0352 19.2489 28.8747 19.6365 28.5889 19.9223C28.3031 20.2081 27.9155 20.3687 27.5113 20.3687C27.1071 20.3687 26.7195 20.2081 26.4337 19.9223C26.1479 19.6365 25.9873 19.2489 25.9873 18.8447V14.2729H13.7958V18.8447C13.7958 19.2489 13.6352 19.6365 13.3494 19.9223C13.0636 20.2081 12.676 20.3687 12.2718 20.3687C11.8676 20.3687 11.48 20.2081 11.1942 19.9223C10.9084 19.6365 10.7479 19.2489 10.7479 18.8447V14.2729Z" fill="#0052BD"/>
</svg>
