<svg width="41" height="41" viewBox="0 0 41 41" fill="none" xmlns="http://www.w3.org/2000/svg">
<path fill-rule="evenodd" clip-rule="evenodd" d="M32.1805 6.36297C30.2164 6.09881 27.6322 6.09615 24.0192 6.09615H16.4295C12.8167 6.09615 10.2329 6.09928 8.26913 6.36366C6.34126 6.6232 5.19847 7.11375 4.3573 7.95421C3.51667 8.79412 3.02615 9.93626 2.76682 11.8644C2.50266 13.8285 2.5 16.4127 2.5 20.0256V23.8205C2.5 27.4333 2.50313 30.0171 2.76751 31.9809C3.02705 33.9087 3.5176 35.0515 4.35806 35.8927C5.19797 36.7333 6.34011 37.2239 8.26826 37.4832C10.2324 37.7473 12.8165 37.75 16.4295 37.75H24.0192C27.632 37.75 30.2158 37.7469 32.1796 37.4825C34.1074 37.2229 35.2502 36.7324 36.0914 35.8919C36.932 35.052 37.4226 33.9099 37.6819 31.9817C37.9461 30.0176 37.9487 27.4335 37.9487 23.8205V20.0256C37.9487 16.4129 37.9456 13.8291 37.6812 11.8653C37.4217 9.93742 36.9311 8.79463 36.0907 7.95345C35.2507 7.11282 34.1086 6.6223 32.1805 6.36297ZM32.5137 3.88528C34.7191 4.1819 36.4772 4.80328 37.8592 6.18644C39.2406 7.56906 39.862 9.32651 40.1588 11.5317C40.4487 13.685 40.4487 16.4423 40.4487 19.9475V23.9155C40.4487 27.4126 40.4488 30.1649 40.1596 32.315C39.863 34.5204 39.2416 36.2785 37.8584 37.6605C36.4758 39.0419 34.7184 39.6633 32.5131 39.9601C30.3598 40.25 27.6026 40.25 24.0973 40.25H16.3345C12.8374 40.25 10.0851 40.25 7.93502 39.9609C5.72961 39.6642 3.97152 39.0429 2.58953 37.6597C1.20809 36.2771 0.586744 34.5196 0.289863 32.3144C-2.78354e-05 30.1611 -1.53136e-05 27.4039 6.60462e-07 23.8987L4.22044e-07 19.9306C-2.30622e-05 16.4336 -4.15444e-05 13.6812 0.28913 11.5312C0.585749 9.32576 1.20712 7.56767 2.59029 6.18569C3.97291 4.80424 5.73035 4.1829 7.93557 3.88601C10.0889 3.59612 12.8461 3.59614 16.3513 3.59615L24.1143 3.59615C27.6113 3.59613 30.3637 3.59611 32.5137 3.88528Z" fill="#0052BD"/>
<path fill-rule="evenodd" clip-rule="evenodd" d="M10.7367 0.75C11.4271 0.75 11.9867 1.30964 11.9867 2V4.84615C11.9867 5.53651 11.4271 6.09615 10.7367 6.09615C10.0463 6.09615 9.4867 5.53651 9.4867 4.84615V2C9.4867 1.30964 10.0463 0.75 10.7367 0.75ZM29.7111 0.75C30.4014 0.75 30.9611 1.30964 30.9611 2V4.84615C30.9611 5.53651 30.4014 6.09615 29.7111 6.09615C29.0207 6.09615 28.4611 5.53651 28.4611 4.84615V2C28.4611 1.30964 29.0207 0.75 29.7111 0.75ZM0.948243 14.3333C0.948243 13.643 1.50789 13.0833 2.19824 13.0833H38.2495C38.9399 13.0833 39.4995 13.643 39.4995 14.3333C39.4995 15.0237 38.9399 15.5833 38.2495 15.5833H2.19824C1.50789 15.5833 0.948243 15.0237 0.948243 14.3333Z" fill="#0052BD"/>
<path d="M31.6091 29.5128C31.6091 30.016 31.4092 30.4987 31.0533 30.8545C30.6975 31.2103 30.2149 31.4102 29.7116 31.4102C29.2084 31.4102 28.7258 31.2103 28.3699 30.8545C28.0141 30.4987 27.8142 30.016 27.8142 29.5128C27.8142 29.0096 28.0141 28.527 28.3699 28.1711C28.7258 27.8153 29.2084 27.6154 29.7116 27.6154C30.2149 27.6154 30.6975 27.8153 31.0533 28.1711C31.4092 28.527 31.6091 29.0096 31.6091 29.5128ZM31.6091 21.9231C31.6091 22.4263 31.4092 22.9089 31.0533 23.2648C30.6975 23.6206 30.2149 23.8205 29.7116 23.8205C29.2084 23.8205 28.7258 23.6206 28.3699 23.2648C28.0141 22.9089 27.8142 22.4263 27.8142 21.9231C27.8142 21.4198 28.0141 20.9372 28.3699 20.5814C28.7258 20.2255 29.2084 20.0256 29.7116 20.0256C30.2149 20.0256 30.6975 20.2255 31.0533 20.5814C31.4092 20.9372 31.6091 21.4198 31.6091 21.9231ZM22.1219 29.5128C22.1219 30.016 21.922 30.4987 21.5661 30.8545C21.2103 31.2103 20.7277 31.4102 20.2245 31.4102C19.7212 31.4102 19.2386 31.2103 18.8828 30.8545C18.5269 30.4987 18.327 30.016 18.327 29.5128C18.327 29.0096 18.5269 28.527 18.8828 28.1711C19.2386 27.8153 19.7212 27.6154 20.2245 27.6154C20.7277 27.6154 21.2103 27.8153 21.5661 28.1711C21.922 28.527 22.1219 29.0096 22.1219 29.5128ZM22.1219 21.9231C22.1219 22.4263 21.922 22.9089 21.5661 23.2648C21.2103 23.6206 20.7277 23.8205 20.2245 23.8205C19.7212 23.8205 19.2386 23.6206 18.8828 23.2648C18.5269 22.9089 18.327 22.4263 18.327 21.9231C18.327 21.4198 18.5269 20.9372 18.8828 20.5814C19.2386 20.2255 19.7212 20.0256 20.2245 20.0256C20.7277 20.0256 21.2103 20.2255 21.5661 20.5814C21.922 20.9372 22.1219 21.4198 22.1219 21.9231ZM12.6347 29.5128C12.6347 30.016 12.4348 30.4987 12.079 30.8545C11.7231 31.2103 11.2405 31.4102 10.7373 31.4102C10.234 31.4102 9.75143 31.2103 9.39559 30.8545C9.03975 30.4987 8.83984 30.016 8.83984 29.5128C8.83984 29.0096 9.03975 28.527 9.39559 28.1711C9.75143 27.8153 10.234 27.6154 10.7373 27.6154C11.2405 27.6154 11.7231 27.8153 12.079 28.1711C12.4348 28.527 12.6347 29.0096 12.6347 29.5128ZM12.6347 21.9231C12.6347 22.4263 12.4348 22.9089 12.079 23.2648C11.7231 23.6206 11.2405 23.8205 10.7373 23.8205C10.234 23.8205 9.75143 23.6206 9.39559 23.2648C9.03975 22.9089 8.83984 22.4263 8.83984 21.9231C8.83984 21.4198 9.03975 20.9372 9.39559 20.5814C9.75143 20.2255 10.234 20.0256 10.7373 20.0256C11.2405 20.0256 11.7231 20.2255 12.079 20.5814C12.4348 20.9372 12.6347 21.4198 12.6347 21.9231Z" fill="#0052BD"/>
</svg>
