<svg width="23" height="22" viewBox="0 0 23 22" fill="none" xmlns="http://www.w3.org/2000/svg">
<path fill-rule="evenodd" clip-rule="evenodd" d="M15.1473 1.28873C16.01 0.46357 17.18 0 18.4 0C19.62 0 20.79 0.46357 21.6527 1.28873C22.5154 2.11389 23 3.23305 23 4.4C23 5.56695 22.5154 6.68611 21.6527 7.51127C20.79 8.33643 19.62 8.8 18.4 8.8C17.18 8.8 16.01 8.33643 15.1473 7.51127C15.0626 7.43025 14.9815 7.34639 14.9042 7.25993L9.1064 10.1168C9.1682 10.4053 9.2 10.7011 9.2 11C9.2 11.2989 9.1682 11.5947 9.1064 11.8832L14.9042 14.7401C14.9815 14.6536 15.0626 14.5698 15.1473 14.4887C16.01 13.6636 17.18 13.2 18.4 13.2C19.62 13.2 20.79 13.6636 21.6527 14.4887C22.5154 15.3139 23 16.433 23 17.6C23 18.767 22.5154 19.8861 21.6527 20.7113C20.79 21.5364 19.62 22 18.4 22C17.18 22 16.01 21.5364 15.1473 20.7113C14.2846 19.8861 13.8 18.767 13.8 17.6C13.8 17.3011 13.8318 17.0053 13.8936 16.7168L8.09577 13.8599C8.01846 13.9464 7.9374 14.0302 7.85269 14.1113C6.99002 14.9364 5.81999 15.4 4.6 15.4C3.38 15.4 2.20998 14.9364 1.34731 14.1113C0.484641 13.2861 0 12.167 0 11C0 9.83305 0.484641 8.71389 1.34731 7.88873C2.20998 7.06357 3.38 6.6 4.6 6.6C5.81999 6.6 6.99002 7.06357 7.85269 7.88873C7.9374 7.96975 8.01846 8.05361 8.09577 8.14007L13.8936 5.28317C13.8318 4.99467 13.8 4.6989 13.8 4.4C13.8 3.23305 14.2846 2.11389 15.1473 1.28873ZM16.3625 5.42062C16.3491 5.38882 16.3341 5.35733 16.3173 5.32625C16.3103 5.31319 16.303 5.30032 16.2955 5.28764C16.1678 5.01059 16.1 4.70864 16.1 4.4C16.1 3.81652 16.3423 3.25695 16.7737 2.84437C17.205 2.43179 17.79 2.2 18.4 2.2C19.01 2.2 19.595 2.43179 20.0263 2.84437C20.4577 3.25695 20.7 3.81652 20.7 4.4C20.7 4.98348 20.4577 5.54306 20.0263 5.95564C19.595 6.36822 19.01 6.6 18.4 6.6C17.79 6.6 17.205 6.36822 16.7737 5.95564C16.6075 5.79675 16.4695 5.61607 16.3625 5.42062ZM6.63752 9.97938C6.53052 9.78393 6.39245 9.60325 6.22635 9.44437C5.79501 9.03179 5.21 8.8 4.6 8.8C3.99 8.8 3.40499 9.03179 2.97365 9.44437C2.54232 9.85695 2.3 10.4165 2.3 11C2.3 11.5835 2.54232 12.1431 2.97365 12.5556C3.40499 12.9682 3.99 13.2 4.6 13.2C5.21 13.2 5.79501 12.9682 6.22635 12.5556C6.39245 12.3968 6.53053 12.2161 6.63753 12.0206C6.6509 11.9888 6.66594 11.9573 6.68268 11.9262C6.68971 11.9132 6.69698 11.9003 6.70447 11.8877C6.83219 11.6106 6.9 11.3086 6.9 11C6.9 10.6914 6.8322 10.3894 6.70448 10.1124C6.69698 10.0997 6.68971 10.0868 6.68268 10.0738C6.66594 10.0427 6.6509 10.0112 6.63752 9.97938ZM16.2955 16.7124C16.1678 16.9894 16.1 17.2914 16.1 17.6C16.1 18.1835 16.3423 18.7431 16.7737 19.1556C17.205 19.5682 17.79 19.8 18.4 19.8C19.01 19.8 19.595 19.5682 20.0263 19.1556C20.4577 18.7431 20.7 18.1835 20.7 17.6C20.7 17.0165 20.4577 16.4569 20.0263 16.0444C19.595 15.6318 19.01 15.4 18.4 15.4C17.79 15.4 17.205 15.6318 16.7737 16.0444C16.6076 16.2032 16.4695 16.3839 16.3625 16.5794C16.3491 16.6112 16.3341 16.6427 16.3173 16.6738C16.3103 16.6868 16.303 16.6997 16.2955 16.7124Z" fill="#0052BD"/>
</svg>
