<svg width="18" height="18" viewBox="0 0 18 18" fill="none" xmlns="http://www.w3.org/2000/svg">
<path fill-rule="evenodd" clip-rule="evenodd" d="M8.04117 10.8003C8.06087 10.8003 8.08064 10.8003 8.10047 10.8003H9.00045C9.02028 10.8003 9.04005 10.8003 9.05975 10.8003C9.85768 10.8003 10.545 10.8002 11.0954 10.8743C11.6855 10.9536 12.2507 11.1326 12.7093 11.5913C13.168 12.0499 13.347 12.6151 13.4264 13.2052C13.5004 13.7556 13.5004 14.4429 13.5003 15.2409L13.5003 17.1001H11.7004V15.3002C11.7004 14.426 11.6985 13.8613 11.6425 13.4452C11.59 13.0551 11.5053 12.9328 11.4366 12.864C11.3678 12.7953 11.2455 12.7106 10.8555 12.6581C10.4394 12.6022 9.87459 12.6002 9.00045 12.6002H8.10047C7.22633 12.6002 6.66155 12.6022 6.24546 12.6581C5.85544 12.7106 5.73307 12.7953 5.66433 12.864C5.59559 12.9328 5.5109 13.0551 5.45843 13.4452C5.40246 13.8613 5.40054 14.426 5.40054 15.3002V17.1001H3.60059V15.3002C3.60059 15.2803 3.60059 15.2606 3.60059 15.2409C3.60054 14.4429 3.6005 13.7556 3.67455 13.2052C3.75393 12.6151 3.93292 12.0499 4.39157 11.5913C4.85022 11.1326 5.41543 10.9536 6.00548 10.8743C6.55588 10.8002 7.24323 10.8003 8.04117 10.8003Z" fill="#0052BD"/>
<path fill-rule="evenodd" clip-rule="evenodd" d="M3.60059 5.40022C3.60059 4.90318 4.00352 4.50024 4.50056 4.50024H9.00044C9.49748 4.50024 9.90042 4.90318 9.90042 5.40022C9.90042 5.89726 9.49748 6.3002 9.00044 6.3002H4.50056C4.00352 6.3002 3.60059 5.89726 3.60059 5.40022Z" fill="#0052BD"/>
<path fill-rule="evenodd" clip-rule="evenodd" d="M13.1205 1.8064C13.0497 1.80103 12.9512 1.80043 12.7545 1.80043H6.29983C5.00182 1.80043 4.11864 1.80235 3.45729 1.89129C2.82175 1.97676 2.52768 2.12744 2.3278 2.32755L2.32707 2.32828C2.12696 2.52816 1.97628 2.82223 1.89081 3.45777C1.80187 4.11912 1.79995 5.0023 1.79995 6.30031V11.7002C1.79995 12.9982 1.80187 13.8814 1.89081 14.5427C1.97628 15.1782 2.12696 15.4723 2.32707 15.6722L2.3278 15.6729C2.52768 15.873 2.82175 16.0237 3.45729 16.1092C4.11864 16.1981 5.00182 16.2 6.29983 16.2H11.6997C12.9977 16.2 13.8809 16.1981 14.5422 16.1092C15.1778 16.0237 15.4718 15.873 15.6717 15.6729L15.6724 15.6722C15.8726 15.4723 16.0232 15.1782 16.1087 14.5427C16.1977 13.8814 16.1996 12.9982 16.1996 11.7002V5.24554C16.1996 5.04879 16.199 4.95033 16.1936 4.87955C16.1935 4.87824 16.1934 4.87697 16.1933 4.87574C16.1925 4.87485 16.1918 4.87393 16.1909 4.87298C16.1448 4.81924 16.0757 4.74923 15.9358 4.60935L13.3895 2.06312C13.2517 1.92475 13.1811 1.85534 13.1279 1.80982C13.1266 1.80873 13.1254 1.80769 13.1242 1.8067C13.123 1.8066 13.1218 1.8065 13.1205 1.8064ZM12.8308 0.000250373C13.1146 -0.00102186 13.4781 -0.00265065 13.816 0.137706C14.1559 0.278862 14.4112 0.536747 14.6157 0.743331C14.6321 0.759914 14.6482 0.776166 14.6639 0.792001C14.6641 0.792189 14.6643 0.792377 14.6645 0.792564L17.2085 3.3366C17.2261 3.35416 17.2443 3.37216 17.2629 3.3906C17.4657 3.59168 17.723 3.84665 17.863 4.18559C18.0026 4.5231 18.001 4.88582 17.9998 5.16924C17.9996 5.19538 17.9995 5.22084 17.9995 5.24554L17.9995 11.7637C17.9995 12.9822 17.9996 13.9872 17.8926 14.7826C17.7803 15.6175 17.5355 16.3551 16.9448 16.9453C16.3546 17.536 15.617 17.7808 14.7821 17.8931C13.9867 18.0001 12.9817 18 11.7632 18H6.23631C5.01783 18 4.01281 18.0001 3.21738 17.8931C2.38243 17.7808 1.64473 17.536 1.05447 16.9451C1.05442 16.9451 1.05452 16.9452 1.05447 16.9451M1.05447 16.9451C0.464026 16.3549 0.21917 15.6173 0.106917 14.7826C-5.70973e-05 13.9872 -3.0769e-05 12.9822 1.09482e-06 11.7637V6.2368C-3.0769e-05 5.01831 -5.70973e-05 4.01329 0.106917 3.21786C0.219216 2.38284 0.464076 1.64509 1.05504 1.0548L1.69104 1.69151L1.05432 1.05552C1.64461 0.464555 2.38236 0.219695 3.21738 0.107396C4.01281 0.000422308 5.01783 0.000448637 6.23632 0.0004805L12.7545 0.000481659C12.7792 0.000481659 12.8046 0.000367529 12.8308 0.000250373" fill="#0052BD"/>
</svg>
