<svg width="40" height="41" viewBox="0 0 40 41" fill="none" xmlns="http://www.w3.org/2000/svg">
<path fill-rule="evenodd" clip-rule="evenodd" d="M35.8554 0.364608C36.2766 0.124301 36.7537 -0.00143034 37.239 1.22757e-05C37.7243 0.00145489 38.2007 0.130022 38.6205 0.372827C39.0402 0.615635 39.3886 0.964158 39.6307 1.38348C39.8727 1.80262 40.0001 2.27779 40 2.76143C40 2.76123 40 2.76163 40 2.76143V31.2585V31.2605C39.9994 31.7439 39.8714 32.2187 39.629 32.6374C39.3866 33.0561 39.0381 33.404 38.6185 33.6462C38.1988 33.8885 37.7228 34.0167 37.2379 34.0179C36.7533 34.0191 36.2768 33.8936 35.8562 33.6538C35.8559 33.6536 35.8564 33.6539 35.8562 33.6538L23.694 26.7244H19.7225L20.8626 34.683C21.0565 36.1412 20.6653 37.6169 19.7741 38.7892C18.8829 39.9615 17.5637 40.7358 16.1031 40.9439C14.6425 41.1519 13.1586 40.7768 11.9738 39.9002C10.789 39.0235 9.99908 37.7161 9.77569 36.2621L9.77333 36.2467L8.39588 26.6311C6.30967 26.3406 4.36045 25.3813 2.85383 23.8791C1.02655 22.0573 0 19.5864 0 17.01C0 14.4335 1.02655 11.9626 2.85383 10.1408C4.68111 8.31901 7.15943 7.29553 9.74359 7.29553H23.6939L35.8554 0.364608ZM22.5641 10.3632H9.74359C7.97548 10.3632 6.27979 11.0635 5.02954 12.31C3.7793 13.5565 3.07692 15.2472 3.07692 17.01C3.07692 18.7728 3.7793 20.4634 5.02954 21.7099C6.27979 22.9564 7.97548 23.6567 9.74359 23.6567H22.5641V10.3632ZM25.641 24.3005L36.9231 30.7283V3.28966L25.641 9.71938V24.3005ZM37.3836 3.02721C37.3834 3.02733 37.3838 3.02709 37.3836 3.02721V3.02721ZM11.5174 26.7244L12.8182 35.8043C12.9202 36.4568 13.2755 37.0431 13.8075 37.4367C14.3413 37.8317 15.0099 38.0007 15.6679 37.907C16.326 37.8132 16.9204 37.4644 17.3219 36.9362C17.7221 36.4098 17.8985 35.7477 17.8132 35.0929L16.6144 26.7244H11.5174Z" fill="#0052BD"/>
</svg>
