<svg width="47" height="38" viewBox="0 0 47 38" fill="none" xmlns="http://www.w3.org/2000/svg">
<path fill-rule="evenodd" clip-rule="evenodd" d="M15.7971 0.41569C15.3164 0.0551215 14.6553 0.0551215 14.1746 0.41569L1.27523 10.0902C0.934754 10.3456 0.734375 10.7463 0.734375 11.1719V27.2961C0.734375 28.2483 1.05769 29.1469 1.72163 29.8109C2.38556 30.4748 3.28417 30.7981 4.2364 30.7981H9.33395V33.7458C9.33395 34.698 9.65726 35.5966 10.3212 36.2606C10.9851 36.9245 11.8837 37.2478 12.836 37.2478H19.2858H27.8854H34.3349C35.2871 37.2478 36.1857 36.9245 36.8497 36.2606C37.5136 35.5966 37.8369 34.698 37.8369 33.7458V30.7981H42.9345C43.8867 30.7981 44.7853 30.4748 45.4492 29.8109C46.1132 29.1469 46.4365 28.2483 46.4365 27.2961V11.1719C46.4365 10.7463 46.2361 10.3456 45.8956 10.0902L32.9963 0.41569C32.5155 0.0551215 31.8545 0.0551215 31.3737 0.41569L23.5854 6.25691L15.7971 0.41569ZM29.2375 34.5435H34.3349C34.6726 34.5435 34.8489 34.4369 34.9375 34.3484C35.026 34.2598 35.1327 34.0835 35.1327 33.7458V29.446V18.2977L23.5854 9.63724L12.0382 18.2977V29.446V33.7458C12.0382 34.0835 12.1449 34.2598 12.2334 34.3484C12.3219 34.4369 12.4983 34.5435 12.836 34.5435H17.9337V22.9963C17.9337 22.2496 18.539 21.6442 19.2858 21.6442H27.8854C28.6321 21.6442 29.2375 22.2496 29.2375 22.9963V34.5435ZM20.6379 34.5435V24.3485H26.5332V34.5435H20.6379ZM9.8748 16.5399L21.3319 7.94707L14.9859 3.18756L3.43864 11.848V27.2961C3.43864 27.6338 3.54531 27.8102 3.63383 27.8987C3.72236 27.9872 3.8987 28.0939 4.2364 28.0939H9.33395V17.6216C9.33395 17.196 9.53432 16.7952 9.8748 16.5399ZM37.2961 16.5399L25.839 7.94707L32.185 3.18756L43.7322 11.848V27.2961C43.7322 27.6338 43.6256 27.8102 43.537 27.8987C43.4485 27.9872 43.2722 28.0939 42.9345 28.0939H37.8369V17.6216C37.8369 17.196 37.6366 16.7952 37.2961 16.5399Z" fill="#0052BD"/>
</svg>
