<svg width="26" height="26" viewBox="0 0 26 26" fill="none" xmlns="http://www.w3.org/2000/svg">
<path fill-rule="evenodd" clip-rule="evenodd" d="M3.5 4H22.503C23.4296 4.00277 24.3175 4.37209 24.9727 5.02731C25.6279 5.68253 25.9972 6.5704 26 7.49701L26 7.5L26 17.5L26 17.503C25.9972 18.4296 25.6279 19.3175 24.9727 19.9727C24.3175 20.6279 23.4296 20.9972 22.503 21L22.5 21H21V19H22.4984C22.8961 18.9985 23.2772 18.8398 23.5585 18.5585C23.8398 18.2772 23.9985 17.8961 24 17.4983V7.50165C23.9985 7.10388 23.8398 6.72282 23.5585 6.44153C23.2772 6.16023 22.8961 6.00153 22.4983 6H3.50168C3.1039 6.00153 2.72282 6.16023 2.44153 6.44153C2.16023 6.72282 2.00153 7.1039 2 7.50168V17.4983C2.00153 17.8961 2.16023 18.2772 2.44153 18.5585C2.72282 18.8398 3.10388 18.9985 3.50165 19H5V21H3.5L3.49701 21C2.5704 20.9972 1.68253 20.6279 1.02731 19.9727C0.372094 19.3175 0.00277185 18.4296 4.48227e-06 17.503L0 17.5V7.49701C0.00276737 6.5704 0.372094 5.68253 1.02731 5.02731C1.68253 4.37209 2.5704 4.00277 3.49701 4L3.5 4Z" fill="#0052BD"/>
<path fill-rule="evenodd" clip-rule="evenodd" d="M6.52 13C6.23281 13 6 13.2328 6 13.52V23.48C6 23.7672 6.23281 24 6.52 24H19.48C19.7672 24 20 23.7672 20 23.48V13.52C20 13.2328 19.7672 13 19.48 13H6.52ZM4 13.52C4 12.1282 5.12824 11 6.52 11H19.48C20.8718 11 22 12.1282 22 13.52V23.48C22 24.8718 20.8718 26 19.48 26H6.52C5.12824 26 4 24.8718 4 23.48V13.52Z" fill="#0052BD"/>
<path fill-rule="evenodd" clip-rule="evenodd" d="M7.5 0H18.503C19.4296 0.00277185 20.3175 0.372094 20.9727 1.02731C21.6279 1.68253 21.9972 2.5704 22 3.49701L22 3.5L22 5H20V3.50165C19.9985 3.10388 19.8398 2.72282 19.5585 2.44153C19.2772 2.16023 18.8961 2.00153 18.4983 2H7.50168C7.1039 2.00153 6.72283 2.16023 6.44153 2.44153C6.16023 2.72282 6.00153 3.1039 6 3.50168V5H4V3.49701C4.00277 2.5704 4.37209 1.68253 5.02731 1.02731C5.68253 0.372094 6.5704 0.00277185 7.49701 4.48227e-06L7.5 0Z" fill="#0052BD"/>
<path d="M21.5 10C22.3284 10 23 9.32843 23 8.5C23 7.67157 22.3284 7 21.5 7C20.6716 7 20 7.67157 20 8.5C20 9.32843 20.6716 10 21.5 10Z" fill="#0052BD"/>
</svg>
