<svg width="40" height="40" viewBox="0 0 40 40" fill="none" xmlns="http://www.w3.org/2000/svg">
<path d="M14.1591 19.6113L18.5592 15.1609C18.7713 14.9464 19.1155 14.9464 19.3276 15.1609L19.8409 15.6801C20.0528 15.8944 20.053 16.2416 19.8418 16.4564L16.3545 19.9999L19.8415 23.5436C20.053 23.7584 20.0526 24.1056 19.8406 24.3199L19.3274 24.8391C19.1153 25.0536 18.7711 25.0536 18.559 24.8391L14.1591 20.3885C13.947 20.1739 13.947 19.8258 14.1591 19.6113Z" fill="#7B7B7B"/>
<path d="M19.1591 19.6113L23.5592 15.1609C23.7713 14.9464 24.1155 14.9464 24.3276 15.1609L24.8409 15.6801C25.0528 15.8944 25.053 16.2416 24.8418 16.4564L21.3545 19.9999L24.8415 23.5436C25.053 23.7584 25.0526 24.1056 24.8406 24.3199L24.3274 24.8391C24.1153 25.0536 23.7711 25.0536 23.559 24.8391L19.1591 20.3885C18.947 20.1739 18.947 19.8258 19.1591 19.6113Z" fill="#7B7B7B"/>
</svg>
