<svg width="16" height="18" viewBox="0 0 16 18" fill="none" xmlns="http://www.w3.org/2000/svg">
<path fill-rule="evenodd" clip-rule="evenodd" d="M4.96514 0.527208C5.29854 0.189642 5.75073 0 6.22222 0H9.77778C10.2493 0 10.7015 0.189642 11.0349 0.527208C11.3683 0.864773 11.5556 1.32261 11.5556 1.8V3.6H14.2118C14.2181 3.59993 14.2244 3.59993 14.2306 3.6H15.1111C15.602 3.6 16 4.00294 16 4.5C16 4.99706 15.602 5.4 15.1111 5.4H15.0401L14.2219 15.3412C14.2114 16.0424 13.9317 16.7126 13.4412 17.2092C12.9411 17.7155 12.2628 18 11.5556 18H4.44444C3.7372 18 3.05892 17.7155 2.55883 17.2092C2.06833 16.7126 1.78864 16.0424 1.77809 15.3412L0.959882 5.4H0.888889C0.397969 5.4 0 4.99706 0 4.5C0 4.00294 0.397969 3.6 0.888889 3.6H1.76936C1.77565 3.59993 1.78192 3.59993 1.78818 3.6H4.44444V1.8C4.44444 1.32261 4.63175 0.864773 4.96514 0.527208ZM2.74382 5.4L3.55248 15.2253C3.55453 15.2501 3.55556 15.2751 3.55556 15.3C3.55556 15.5387 3.64921 15.7676 3.8159 15.9364C3.9826 16.1052 4.2087 16.2 4.44444 16.2H11.5556C11.7913 16.2 12.0174 16.1052 12.1841 15.9364C12.3508 15.7676 12.4444 15.5387 12.4444 15.3C12.4444 15.2751 12.4455 15.2501 12.4475 15.2253L13.2562 5.4H2.74382ZM9.77778 3.6H6.22222V1.8L9.77778 1.8V3.6ZM6.22222 7.2C6.71314 7.2 7.11111 7.60294 7.11111 8.1V13.5C7.11111 13.9971 6.71314 14.4 6.22222 14.4C5.7313 14.4 5.33333 13.9971 5.33333 13.5V8.1C5.33333 7.60294 5.7313 7.2 6.22222 7.2ZM9.77778 7.2C10.2687 7.2 10.6667 7.60294 10.6667 8.1V13.5C10.6667 13.9971 10.2687 14.4 9.77778 14.4C9.28686 14.4 8.88889 13.9971 8.88889 13.5V8.1C8.88889 7.60294 9.28686 7.2 9.77778 7.2Z" fill="#EB4444"/>
</svg>
