<svg width="36" height="40" viewBox="0 0 36 40" fill="none" xmlns="http://www.w3.org/2000/svg">
<path fill-rule="evenodd" clip-rule="evenodd" d="M29.6167 0.393799C28.0575 0.393799 26.5621 1.0132 25.4596 2.11574C24.357 3.21828 23.7376 4.71364 23.7376 6.27287C23.7376 7.83209 24.357 9.32746 25.4596 10.43C26.5621 11.5325 28.0575 12.1519 29.6167 12.1519C31.1759 12.1519 32.6713 11.5325 33.7738 10.43C34.8764 9.32746 35.4958 7.83209 35.4958 6.27287C35.4958 4.71364 34.8764 3.21828 33.7738 2.11574C32.6713 1.0132 31.1759 0.393799 29.6167 0.393799ZM27.8498 4.50599C28.3185 4.03739 28.954 3.77413 29.6167 3.77413C30.2794 3.77413 30.915 4.03739 31.3836 4.50599C31.8522 4.9746 32.1155 5.61016 32.1155 6.27287C32.1155 6.93557 31.8522 7.57114 31.3836 8.03974C30.915 8.50835 30.2794 8.7716 29.6167 8.7716C28.954 8.7716 28.3185 8.50835 27.8498 8.03974C27.3812 7.57114 27.118 6.93557 27.118 6.27287C27.118 5.61016 27.3812 4.9746 27.8498 4.50599ZM12.8903 15.0552C10.8023 15.0191 8.74006 15.5213 6.90236 16.5133C5.06465 17.5054 3.51336 18.9539 2.39788 20.7195C1.28241 22.485 0.640333 24.508 0.533504 26.5937C0.426674 28.6793 0.858688 30.7573 1.78794 32.6276C2.71718 34.4979 4.11235 36.0973 5.83908 37.272C7.5658 38.4466 9.5659 39.1568 11.6467 39.3343C13.7276 39.5117 15.819 39.1503 17.7197 38.285C19.6204 37.4196 21.2662 36.0794 22.4987 34.3935C23.0495 33.6399 22.8852 32.5824 22.1316 32.0316C21.3781 31.4807 20.3206 31.645 19.7697 32.3986C18.8798 33.6159 17.6914 34.5836 16.319 35.2085C14.9466 35.8333 13.4364 36.0943 11.9339 35.9662C10.4314 35.838 8.98721 35.3252 7.7404 34.477C6.49358 33.6289 5.48618 32.4739 4.8152 31.1235C4.14422 29.773 3.83227 28.2726 3.90941 26.7666C3.98655 25.2606 4.45017 23.7998 5.25562 22.525C6.06107 21.2502 7.18121 20.2042 8.50815 19.4879C9.8351 18.7716 11.3241 18.409 12.8319 18.435C13.7652 18.4512 14.5349 17.7077 14.551 16.7744C14.5672 15.841 13.8237 15.0714 12.8903 15.0552ZM15.9698 7.01518C15.5626 6.70981 15.0395 6.60417 14.5458 6.72761L6.16796 8.82206C5.26238 9.04846 4.71179 9.96611 4.93818 10.8717C5.16458 11.7773 6.08223 12.3279 6.98781 12.1015L14.5852 10.2021L21.0999 15.0882L15.6008 24.2533C15.2875 24.7755 15.2793 25.4258 15.5794 25.9557C15.8794 26.4855 16.4412 26.8131 17.0501 26.8131H24.6156L32.486 36.651C33.0691 37.3799 34.1327 37.4981 34.8616 36.915C35.5905 36.3319 35.7087 35.2682 35.1256 34.5393L26.7477 24.0671C26.427 23.6662 25.9414 23.4328 25.4279 23.4328H20.0353L24.7828 15.5203C25.2284 14.7776 25.0405 13.8182 24.3476 13.2985L15.9698 7.01518Z" fill="#0052BD"/>
</svg>
