<svg width="49" height="34" viewBox="0 0 49 34" fill="none" xmlns="http://www.w3.org/2000/svg">
<path fill-rule="evenodd" clip-rule="evenodd" d="M15.3669 1.47826C15.3669 0.66184 16.0159 0 16.8166 0H47.5503C48.3509 0 49 0.66184 49 1.47826V17C49 17.8164 48.3509 18.4783 47.5503 18.4783H33.6331V32.5217C33.6331 33.3382 32.9841 34 32.1834 34H1.4497C0.649055 34 0 33.3382 0 32.5217V17C0 16.1836 0.649055 15.5217 1.4497 15.5217H15.3669V1.47826ZM15.3669 18.4783H2.89941V31.0435H15.3669V18.4783ZM18.2663 31.0435V18.4783H30.7337V31.0435H18.2663ZM30.7337 15.5217H18.2663V2.95652H30.7337V15.5217ZM33.6331 15.5217H46.1006V2.95652H33.6331V15.5217Z" fill="#0052BD"/>
</svg>
