<svg width="45" height="41" viewBox="0 0 45 41" fill="none" xmlns="http://www.w3.org/2000/svg">
<path d="M22.2683 10.4146C22.6787 10.4146 23.0722 10.5776 23.3624 10.8678C23.6526 11.158 23.8157 11.5515 23.8157 11.9619V22.2779C23.8157 22.6883 23.6526 23.0819 23.3624 23.3721C23.0722 23.6623 22.6787 23.8253 22.2683 23.8253C21.8579 23.8253 21.4643 23.6623 21.1741 23.3721C20.8839 23.0819 20.7209 22.6883 20.7209 22.2779V11.9619C20.7209 11.5515 20.8839 11.158 21.1741 10.8678C21.4643 10.5776 21.8579 10.4146 22.2683 10.4146ZM22.2683 30.5307C22.8155 30.5307 23.3402 30.3133 23.7272 29.9264C24.1141 29.5394 24.3315 29.0147 24.3315 28.4675C24.3315 27.9203 24.1141 27.3955 23.7272 27.0086C23.3402 26.6216 22.8155 26.4043 22.2683 26.4043C21.7211 26.4043 21.1963 26.6216 20.8094 27.0086C20.4224 27.3955 20.2051 27.9203 20.2051 28.4675C20.2051 29.0147 20.4224 29.5394 20.8094 29.9264C21.1963 30.3133 21.7211 30.5307 22.2683 30.5307Z" fill="#0052BD"/>
<path fill-rule="evenodd" clip-rule="evenodd" d="M14.6233 4.69105C16.835 1.88305 19.1788 0.0983887 22.2695 0.0983887C25.3601 0.0983887 27.7039 1.88305 29.9156 4.69105C32.0902 7.45573 34.3928 11.5408 37.3431 16.771L38.2427 18.3638C40.6793 22.6862 42.6063 26.1008 43.6173 28.8386C44.6489 31.6404 44.8965 34.1823 43.3326 36.425C41.8161 38.6017 39.2846 39.4909 36.0908 39.9118C32.9114 40.3306 28.6323 40.3306 23.1463 40.3306H21.3926C15.9045 40.3306 11.6275 40.3306 8.44814 39.9118C5.25432 39.4909 2.72279 38.6017 1.20634 36.425C-0.357555 34.1823 -0.112036 31.6384 0.921623 28.8386C1.93259 26.0987 3.85961 22.6862 6.29623 18.3638L7.19579 16.771C10.1441 11.5408 12.4487 7.45366 14.6233 4.69105ZM17.0558 6.60569C15.0462 9.15786 12.8551 13.0346 9.8181 18.4195L9.0671 19.7503C6.53763 24.2357 4.74059 27.4336 3.8266 29.9115C2.92292 32.3584 3.04671 33.6541 3.74407 34.6568C4.48888 35.7214 5.88566 36.4518 8.85253 36.8438C11.807 37.2317 15.8798 37.2358 21.5205 37.2358H23.0205C28.6592 37.2358 32.7319 37.2317 35.6884 36.8438C38.6533 36.4518 40.05 35.7214 40.7928 34.6568C41.4922 33.6541 41.6181 32.3584 40.7144 29.9115C39.7983 27.4336 38.0013 24.2357 35.4718 19.7503L34.7208 18.4195C31.6838 13.0346 29.4927 9.15786 27.4831 6.60569C25.4922 4.08035 23.9468 3.19317 22.2695 3.19317C20.5921 3.19317 19.0468 4.07828 17.0558 6.60569Z" fill="#0052BD"/>
</svg>
