<svg width="15" height="28" viewBox="0 0 15 28" fill="none" xmlns="http://www.w3.org/2000/svg">
<path d="M14.6168 0H0.383212C0.171898 0 0 0.177509 0 0.39572V15.0995C0 15.3177 0.171898 15.4953 0.383212 15.4953L6.50365 15.4975C5.87956 18.4892 4.11679 21.2829 1.72226 23.0399C1.63029 23.1078 1.57117 23.2141 1.56241 23.3305C1.55365 23.447 1.59416 23.5612 1.67409 23.6437L5.81277 27.8847C5.88723 27.9604 5.98467 28 6.08321 28C6.15766 28 6.23102 27.9774 6.29672 27.9333C11.746 24.1581 15 17.8741 15 11.122V0.39572C15 0.177509 14.8281 0 14.6168 0Z" fill="#FFCD00"/>
</svg>
