<svg width="20" height="20" viewBox="0 0 20 20" fill="none" xmlns="http://www.w3.org/2000/svg">
<path fill-rule="evenodd" clip-rule="evenodd" d="M16.5876 2.47642C14.764 0.879704 12.4225 -0.000327779 9.99871 9.1582e-08C7.57489 0.000328289 5.23369 0.880994 3.41054 2.4782C1.5874 4.07541 0.406412 6.28044 0.0872382 8.68317C-0.215629 10.9632 0.27707 13.2739 1.47565 15.2281L0.0456596 19.0336C-0.044778 19.2742 0.001103 19.5449 0.165793 19.7424C0.330483 19.9398 0.588568 20.0335 0.841554 19.9877L5.82282 19.0857C7.94825 20.063 10.3519 20.2651 12.6147 19.6521C14.9542 19.0184 16.9839 17.5565 18.3263 15.5383C19.6687 13.5202 20.2324 11.0831 19.9125 8.68049C19.5927 6.27784 18.4111 4.07314 16.5876 2.47642ZM1.82573 18.3577L2.93172 15.4144C3.03343 15.1687 2.98762 14.894 2.8295 14.6959C1.7037 12.9768 1.23258 10.9097 1.50336 8.87129C1.77693 6.8118 2.78921 4.92178 4.35191 3.55274C5.9146 2.18371 7.92135 1.42885 9.99891 1.42857C12.0765 1.42829 14.0834 2.1826 15.6465 3.55122C17.2096 4.91983 18.2223 6.80958 18.4965 8.86899C18.7706 10.9284 18.2874 13.0173 17.1368 14.7471C15.9862 16.477 14.2464 17.73 12.2412 18.2732C10.2588 18.8102 8.15032 18.6174 6.29924 17.7313C6.19117 17.6655 6.06427 17.6277 5.92853 17.6277H5.92138C5.87871 17.6277 5.83611 17.6315 5.79412 17.6391L1.82573 18.3577ZM5.45499 10.909C5.95707 10.909 6.36408 10.502 6.36408 9.99991C6.36408 9.49783 5.95707 9.09082 5.45499 9.09082C4.95291 9.09082 4.5459 9.49783 4.5459 9.99991C4.5459 10.502 4.95291 10.909 5.45499 10.909ZM10.9091 10C10.9091 10.5021 10.5021 10.9091 10 10.9091C9.49792 10.9091 9.09091 10.5021 9.09091 10C9.09091 9.49792 9.49792 9.09091 10 9.09091C10.5021 9.09091 10.9091 9.49792 10.9091 10ZM14.5458 10.909C15.0479 10.909 15.4549 10.502 15.4549 9.99991C15.4549 9.49783 15.0479 9.09082 14.5458 9.09082C14.0437 9.09082 13.6367 9.49783 13.6367 9.99991C13.6367 10.502 14.0437 10.909 14.5458 10.909Z" fill="#0052BD"/>
</svg>
