<svg width="40" height="40" viewBox="0 0 40 40" fill="none" xmlns="http://www.w3.org/2000/svg">
<path d="M25.8409 19.6113L21.4408 15.1609C21.2287 14.9464 20.8845 14.9464 20.6724 15.1609L20.1591 15.6801C19.9472 15.8944 19.947 16.2416 20.1582 16.4564L23.6455 19.9999L20.1585 23.5436C19.947 23.7584 19.9474 24.1056 20.1594 24.3199L20.6726 24.8391C20.8847 25.0536 21.2289 25.0536 21.441 24.8391L25.8409 20.3885C26.053 20.1739 26.053 19.8258 25.8409 19.6113Z" fill="#7B7B7B"/>
<path d="M20.8409 19.6113L16.4408 15.1609C16.2287 14.9464 15.8845 14.9464 15.6724 15.1609L15.1591 15.6801C14.9472 15.8944 14.947 16.2416 15.1582 16.4564L18.6455 19.9999L15.1585 23.5436C14.947 23.7584 14.9474 24.1056 15.1594 24.3199L15.6726 24.8391C15.8847 25.0536 16.2289 25.0536 16.441 24.8391L20.8409 20.3885C21.053 20.1739 21.053 19.8258 20.8409 19.6113Z" fill="#7B7B7B"/>
</svg>
