<svg width="19" height="25" viewBox="0 0 19 25" fill="none" xmlns="http://www.w3.org/2000/svg">
<path d="M9.41921 8.72661L7.45484 10.5814C7.71451 11.5168 8.07722 12.417 8.5356 13.2637C9.01372 14.1042 9.58984 14.8784 10.2506 15.5684L12.7945 14.7435C14.2197 14.2811 15.7755 14.756 16.7232 15.9434L18.1722 17.7582C18.7588 18.4868 19.0529 19.427 18.9922 20.3799C18.9314 21.3327 18.5206 22.2232 17.8468 22.8627C15.4833 25.1325 11.8444 25.8999 9.11992 23.6476C6.72436 21.6647 4.69816 19.2323 3.14368 16.4734C1.58524 13.728 0.541834 10.6934 0.0700485 7.53422C-0.452516 3.97957 2.02017 1.13485 5.1033 0.164943C6.94178 -0.415 8.90377 0.579903 9.57835 2.43472L10.3741 4.62201C10.8966 6.06187 10.5213 7.68671 9.41921 8.72661Z" fill="#0052BD"/>
</svg>
