<svg width="35" height="35" viewBox="0 0 35 35" fill="none" xmlns="http://www.w3.org/2000/svg">
<path d="M11.666 18.9583V6.5625C11.666 5.98234 11.8965 5.42594 12.3067 5.0157C12.717 4.60547 13.2734 4.375 13.8535 4.375C14.4337 4.375 14.9901 4.60547 15.4003 5.0157C15.8105 5.42594 16.041 5.98234 16.041 6.5625V17.5M16.041 16.7708V13.8542C16.041 13.274 16.2715 12.7176 16.6817 12.3074C17.092 11.8971 17.6484 11.6667 18.2285 11.6667C18.8087 11.6667 19.3651 11.8971 19.7753 12.3074C20.1855 12.7176 20.416 13.274 20.416 13.8542V17.5M20.416 15.3125C20.416 14.7323 20.6465 14.1759 21.0567 13.7657C21.467 13.3555 22.0234 13.125 22.6035 13.125C23.1837 13.125 23.7401 13.3555 24.1503 13.7657C24.5605 14.1759 24.791 14.7323 24.791 15.3125V17.5" stroke="#0052BD" stroke-width="2" stroke-linecap="round" stroke-linejoin="round"/>
<path d="M24.7912 16.7708C24.7912 16.1907 25.0217 15.6343 25.4319 15.224C25.8421 14.8138 26.3985 14.5833 26.9787 14.5833C27.5589 14.5833 28.1153 14.8138 28.5255 15.224C28.9357 15.6343 29.1662 16.1907 29.1662 16.7708V23.3333C29.1662 25.654 28.2443 27.8796 26.6034 29.5205C24.9624 31.1614 22.7368 32.0833 20.4162 32.0833H17.4995H17.8029C16.3538 32.0836 14.9273 31.7239 13.6516 31.0366C12.3758 30.3494 11.2907 29.356 10.4937 28.1458L10.2079 27.7083C9.75287 27.0103 8.15551 24.2258 5.41579 19.355C5.13644 18.8585 5.06182 18.2726 5.2078 17.7219C5.35378 17.1712 5.70883 16.6992 6.19745 16.4062C6.71812 16.0947 7.32781 15.9657 7.93004 16.0397C8.53227 16.1136 9.09263 16.3863 9.52245 16.8146L11.6662 18.9583" stroke="#0052BD" stroke-width="2" stroke-linecap="round" stroke-linejoin="round"/>
</svg>
