<svg width="25" height="25" viewBox="0 0 25 25" fill="none" xmlns="http://www.w3.org/2000/svg">
<path fill-rule="evenodd" clip-rule="evenodd" d="M11.8161 0.283262C12.1938 -0.0944208 12.8062 -0.0944208 13.1839 0.283262L24.7167 11.8161C24.9933 12.0927 25.076 12.5087 24.9264 12.8701C24.7767 13.2315 24.424 13.4671 24.0329 13.4671H22.4371V21.47C22.4371 22.4062 22.0652 23.3041 21.4032 23.9661C20.7412 24.6281 19.8433 25 18.9071 25H6.09286C5.15665 25 4.25879 24.6281 3.59679 23.9661C2.93479 23.3041 2.56288 22.4062 2.56288 21.47V13.4671H0.967144C0.575982 13.4671 0.223337 13.2315 0.0736456 12.8701C-0.0760456 12.5087 0.00669674 12.0927 0.28329 11.8161L11.8161 0.283262ZM3.30197 11.5329H3.53C4.06412 11.5329 4.49712 11.9659 4.49712 12.5V21.47C4.49712 21.8932 4.66524 22.2991 4.9645 22.5984C5.26376 22.8976 5.66964 23.0658 6.09286 23.0658H18.9071C19.3304 23.0658 19.7362 22.8976 20.0355 22.5984C20.3348 22.2991 20.5029 21.8932 20.5029 21.47V12.5C20.5029 11.9659 20.9359 11.5329 21.47 11.5329H21.698L12.5 2.33483L3.30197 11.5329Z" fill="white"/>
<path fill-rule="evenodd" clip-rule="evenodd" d="M11.3114 14.4841C10.9188 14.4841 10.5422 14.6566 10.2645 14.9636C9.98681 15.2705 9.83082 15.6869 9.83082 16.121V24.0079C9.83082 24.5558 9.42907 25 8.93348 25C8.43789 25 8.03613 24.5558 8.03613 24.0079V16.121C8.03613 15.1607 8.38121 14.2397 8.99545 13.5606C9.60969 12.8815 10.4428 12.5 11.3114 12.5H13.6894C14.5581 12.5 15.3912 12.8815 16.0054 13.5606C16.6196 14.2397 16.9647 15.1607 16.9647 16.121V24.0079C16.9647 24.5558 16.563 25 16.0674 25C15.5718 25 15.17 24.5558 15.17 24.0079V16.121C15.17 15.6869 15.014 15.2705 14.7364 14.9636C14.4587 14.6566 14.0821 14.4841 13.6894 14.4841H11.3114Z" fill="white"/>
</svg>
