<svg width="21" height="19" viewBox="0 0 21 19" fill="none" xmlns="http://www.w3.org/2000/svg">
<path d="M0.75 3.4898H20.25C20.6642 3.4898 21 3.14261 21 2.71429V0.77551C21 0.347186 20.6642 0 20.25 0H0.75C0.335766 0 0 0.347186 0 0.77551V2.71429C0 3.14261 0.335766 3.4898 0.75 3.4898ZM0.75 11.2449H20.25C20.6642 11.2449 21 10.8977 21 10.4694V8.53061C21 8.10229 20.6642 7.7551 20.25 7.7551H0.75C0.335766 7.7551 0 8.10229 0 8.53061V10.4694C0 10.8977 0.335766 11.2449 0.75 11.2449ZM0.75 19H20.25C20.6642 19 21 18.6528 21 18.2245V16.2857C21 15.8574 20.6642 15.5102 20.25 15.5102H0.75C0.335766 15.5102 0 15.8574 0 16.2857V18.2245C0 18.6528 0.335766 19 0.75 19Z" fill="#0052BD"/>
</svg>
