<svg width="38" height="39" viewBox="0 0 38 39" fill="none" xmlns="http://www.w3.org/2000/svg">
<path d="M17.2128 3.12107V1.69091C17.2128 1.3116 17.3635 0.947836 17.6317 0.679628C17.8999 0.41142 18.2636 0.260742 18.6429 0.260742C19.0222 0.260742 19.386 0.41142 19.6542 0.679628C19.9224 0.947836 20.0731 1.3116 20.0731 1.69091V3.12107C20.0731 3.50038 19.9224 3.86415 19.6542 4.13235C19.386 4.40056 19.0222 4.55124 18.6429 4.55124C18.2636 4.55124 17.8999 4.40056 17.6317 4.13235C17.3635 3.86415 17.2128 3.50038 17.2128 3.12107ZM31.5144 8.84174C31.7023 8.84189 31.8884 8.80502 32.062 8.73324C32.2356 8.66146 32.3934 8.55618 32.5263 8.42341L33.9564 6.99325C34.2248 6.72489 34.3756 6.36092 34.3756 5.98141C34.3756 5.60189 34.2248 5.23792 33.9564 4.96956C33.6881 4.70121 33.3241 4.55045 32.9446 4.55045C32.5651 4.55045 32.2011 4.70121 31.9328 4.96956L30.5026 6.39973C30.3024 6.59975 30.166 6.85468 30.1107 7.13225C30.0554 7.40982 30.0837 7.69756 30.1921 7.95903C30.3004 8.22049 30.4839 8.44394 30.7193 8.60107C30.9547 8.7582 31.2314 8.84196 31.5144 8.84174ZM4.7596 8.42341C5.02796 8.69177 5.39193 8.84253 5.77145 8.84253C6.15096 8.84253 6.51493 8.69177 6.78329 8.42341C7.05165 8.15506 7.20241 7.79109 7.20241 7.41157C7.20241 7.03206 7.05165 6.66809 6.78329 6.39973L5.35312 4.96956C5.08476 4.70121 4.72079 4.55045 4.34128 4.55045C3.96177 4.55045 3.59779 4.70121 3.32944 4.96956C3.06108 5.23792 2.91032 5.60189 2.91032 5.98141C2.91032 6.36092 3.06108 6.72489 3.32944 6.99325L4.7596 8.42341ZM20.3127 13.1519C20.1266 13.119 19.9359 13.1233 19.7515 13.1645C19.5672 13.2057 19.3928 13.2831 19.2385 13.3921C19.0842 13.5011 18.953 13.6396 18.8525 13.7996C18.752 13.9596 18.6842 14.1379 18.653 14.3242C18.6219 14.5106 18.6279 14.7012 18.6709 14.8852C18.7138 15.0692 18.7928 15.2429 18.9032 15.3962C19.0136 15.5494 19.1533 15.6793 19.3142 15.7783C19.4752 15.8773 19.6541 15.9435 19.8407 15.9729C23.232 16.5432 25.7938 19.6252 25.7938 23.1434C25.7938 23.5227 25.9444 23.8865 26.2127 24.1547C26.4809 24.4229 26.8446 24.5736 27.2239 24.5736C27.6032 24.5736 27.967 24.4229 28.2352 24.1547C28.5034 23.8865 28.6541 23.5227 28.6541 23.1434C28.6541 18.2451 25.0662 13.9492 20.3091 13.1519H20.3127ZM37.2351 31.7244V36.0149C37.2351 36.7735 36.9337 37.501 36.3973 38.0375C35.8609 38.5739 35.1334 38.8752 34.3748 38.8752H2.91111C2.15251 38.8752 1.42497 38.5739 0.888553 38.0375C0.352137 37.501 0.0507813 36.7735 0.0507812 36.0149V31.7244C0.0507812 30.9658 0.352137 30.2383 0.888553 29.7018C1.42497 29.1654 2.15251 28.8641 2.91111 28.8641V23.1434C2.91105 21.0673 3.3219 19.0118 4.11998 17.0953C4.91806 15.1788 6.08758 13.4392 7.56113 11.9768C9.03467 10.5143 10.7831 9.35805 12.7056 8.57453C14.6281 7.79101 16.6867 7.39577 18.7627 7.41157C27.3705 7.47593 34.3748 14.6142 34.3748 23.3222V28.8641C35.1334 28.8641 35.8609 29.1654 36.3973 29.7018C36.9337 30.2383 37.2351 30.9658 37.2351 31.7244ZM5.77145 28.8641H31.5144V23.3222C31.5144 16.1713 25.7848 10.3237 18.7413 10.2719H18.6429C15.2292 10.2719 11.9553 11.628 9.54142 14.0419C7.12755 16.4558 5.77145 19.7297 5.77145 23.1434V28.8641ZM34.3748 36.0149V31.7244H2.91111V36.0149H34.3748Z" fill="#0052BD"/>
</svg>
