<svg width="508" height="610" viewBox="0 0 508 610" fill="none" xmlns="http://www.w3.org/2000/svg">
<path d="M88.557 84.0476L85.2534 86.3979L82.9043 90.2171C82.9043 90.2171 83.3448 93.0815 83.3448 94.477C83.3448 95.8724 85.2534 99.6916 85.2534 99.6916L85.6938 103.51L84.7396 107.33C84.7396 107.33 83.3447 109.239 84.7396 110.635C86.1344 112.031 86.6483 112.544 88.557 112.985C90.4658 113.426 92.815 113.941 94.2097 113.426C95.6049 112.985 96.5589 111.076 96.5589 111.076C96.5589 111.076 96.9995 107.771 96.9995 106.375C96.9995 104.98 96.9995 102.115 96.9995 102.115C96.9995 102.115 96.9995 98.8101 96.9995 97.4149C96.9995 96.0197 95.6049 92.2001 95.6049 92.2001L94.2097 87.9402L90.9062 84.6352L88.557 84.0476Z" fill="white" stroke="#7B7B7B" stroke-miterlimit="10"/>
<path d="M72.9207 83.5332L69.6172 87.7931C69.6172 87.7931 70.0577 90.6575 71.5259 90.6575C72.9208 90.6575 77.1788 89.7027 77.1788 89.7027C77.1788 89.7027 77.6192 89.2621 77.6192 87.7931C77.6192 86.3976 77.1788 84.488 77.1788 84.488L72.9207 83.5332Z" fill="white" stroke="#7B7B7B" stroke-miterlimit="10"/>
<path d="M76.7382 93.0081C75.3433 95.3583 73.875 97.2679 73.875 97.2679L74.8294 100.132L77.1786 102.997L78.133 106.816L80.9961 104.907V101.528L80.5556 99.6186L80.1151 97.2679L78.7202 94.4035L76.7382 93.0081Z" fill="white" stroke="#7B7B7B" stroke-miterlimit="10"/>
<path d="M96.1207 122.827L91.8625 125.177H87.1641L82.9061 125.618L80.043 130.392L85.6958 135.533H89.9537L93.2573 134.138L98.0287 132.743L99.4244 130.392L103.241 128.482L101.773 124.663L98.9838 123.268L96.1207 122.827Z" fill="white" stroke="#7B7B7B" stroke-miterlimit="10"/>
<path d="M83.347 138.398L82.3926 142.657L85.2558 144.054L87.1644 140.748L85.2558 138.398H83.347Z" fill="white" stroke="#7B7B7B" stroke-miterlimit="10"/>
<path d="M76.2969 119.009L77.2512 121.873C77.2512 121.873 78.2056 121.873 79.6005 122.314C80.9954 122.755 83.4179 121.358 83.4179 121.358L82.9774 118.494L78.279 118.053L76.2969 119.009Z" fill="white" stroke="#7B7B7B" stroke-miterlimit="10"/>
<path d="M69.6196 103.878L66.8301 107.624L67.2705 111.443L70.1336 108.579L69.6196 103.878Z" fill="white" stroke="#7B7B7B" stroke-miterlimit="10"/>
<path d="M67.2681 239.607L65.3594 245.262L66.3137 251.872L66.7543 256.573L68.6629 261.274L72.9208 261.715C72.9208 261.715 76.2245 259.364 76.2245 257.895C76.2245 256.5 75.2701 252.24 75.2701 250.771C75.2701 249.376 73.3614 244.601 73.3614 243.206C73.3614 241.81 70.4982 238.946 70.4982 238.946L67.2681 239.607Z" fill="white" stroke="#7B7B7B" stroke-miterlimit="10"/>
<path d="M166.522 40.0531L169.386 45.7085L170.34 50.409L173.203 51.8045L176.506 49.8949L180.323 47.9853L181.719 50.3356L179.81 54.1548L177.901 58.8553L181.204 60.2508L185.023 59.2961L186.931 58.3412H191.189L193.097 59.2961L193.538 63.9966L194.493 70.1661C200.145 73.4712 202.495 73.0305 202.495 73.0305L204.843 77.2904L208.147 80.1549L211.01 84.8554L209.102 89.5559L205.284 90.5108L201.026 93.3752C201.026 93.3752 199.117 96.6803 199.117 98.0755C199.117 99.4717 199.558 101.381 199.558 101.381L198.604 104.686C198.604 104.686 197.209 105.126 197.209 106.596C197.209 107.991 198.163 109.901 198.163 109.901L201.467 110.342L201.026 114.087C201.026 114.087 201.467 115.483 200.586 116.952C199.632 118.347 199.632 121.211 199.632 121.211L201.54 122.166C201.54 122.166 202.935 120.257 204.403 120.257C205.798 120.257 205.798 120.257 205.798 120.257L210.056 120.698C210.056 120.698 211.45 123.047 212.919 124.517C214.314 125.912 213.36 125.471 216.223 127.381C219.086 129.291 225.179 131.2 225.179 131.2L228.997 131.64L225.179 134.946L220.921 137.296L219.967 141.556L223.784 144.42L220.921 150.076L219.013 153.895V160.064L217.104 165.72C217.104 165.72 215.195 169.539 215.195 172.33C215.195 175.195 215.635 178.5 215.635 178.5C215.635 178.5 215.635 180.409 219.893 181.364C224.152 182.319 230.759 182.319 230.759 182.319L233.107 180.924L234.062 178.573V174.754C235.97 172.403 239.715 170.494 239.715 170.494L243.018 170.054C243.018 170.054 244.413 171.963 244.927 173.359C245.368 174.754 245.368 178.573 245.368 178.573L248.231 180.483C248.231 180.483 251.094 178.573 252.489 178.573C253.883 178.573 253.443 176.223 256.746 176.223C260.05 176.223 262.399 176.223 262.399 176.223L265.262 174.313C265.262 174.313 269.961 176.664 271.429 177.178C272.824 177.618 276.127 179.088 276.127 179.088L274.733 181.437L271.429 182.393L269.08 184.302V187.166L270.989 187.607H276.201L279.505 185.698L283.763 187.093C283.763 187.093 284.203 190.398 284.717 191.793C285.157 193.189 289.416 193.703 289.416 193.703L292.719 192.748L296.536 194.658C296.536 194.658 298.886 196.568 300.354 197.522C301.749 198.477 306.52 198.917 306.52 198.917L308.429 201.268L313.642 203.178L316.946 202.737L317.386 199.873L321.203 197.522H323.112L326.929 199.432L327.883 202.737L330.746 203.692L332.142 201.782L335.005 199.873L337.354 199.432C337.354 199.432 338.749 199.873 340.217 200.386C341.612 200.827 344.916 201.782 344.916 201.782H348.733L352.55 199.432L358.203 199.873C358.203 199.873 358.644 203.178 361.066 204.573C363.416 205.968 365.324 206.483 365.324 206.483L367.674 202.222L370.537 198.404L376.19 197.008L380.888 194.952C380.741 194.511 380.521 194.07 380.448 193.703C380.007 192.307 380.448 186.578 380.448 185.183C380.448 183.788 380.448 180.924 380.448 180.924L374.794 171.963C374.794 171.963 374.354 168.657 372.886 166.749C371.491 164.839 369.583 159.624 369.583 159.624C369.583 159.624 365.765 154.41 364.884 153.013C363.929 151.618 360.626 147.799 360.626 147.799L359.231 143.539L356.882 140.234C356.882 140.234 355.928 139.279 354.973 135.974C354.019 132.669 353.578 131.714 353.578 130.319C353.578 128.923 353.578 124.663 353.578 124.663L347.926 117.539L338.456 104.76L332.289 94.33L328.985 87.2057L323.773 81.991L319.074 77.2904L317.68 66.861L314.816 57.3865C314.816 57.3865 312.467 52.6858 312.467 50.7762C312.467 48.8666 307.769 37.5559 307.769 37.5559C307.769 37.5559 304.465 33.7367 304.465 30.9458C304.465 28.0813 301.162 19.1209 301.162 19.1209L297.858 13.4655L296.463 7.29597L293.599 1.12646L290.736 1.56714L287.433 2.00781L285.084 6.26775V12.4373L285.525 19.5615L282.221 24.7763L275.099 29.9909L270.401 31.3864L264.234 34.2508L259.023 38.07L251.461 35.7198L245.808 34.3242L240.596 32.4146L237.733 33.3695L236.338 36.6745L233.988 35.7198L232.079 32.4146L229.731 31.4599L226.427 32.8553L220.774 33.296L217.911 32.8553H214.607L211.304 31.4599L209.396 31.9005L205.137 33.8101L202.788 34.7649L200.879 33.8101L197.062 32.4146L195.153 30.0644H188.546C188.546 30.0644 185.242 29.6237 185.242 31.0191C185.242 32.4146 182.893 31.974 182.893 31.974L179.589 29.1096L175.331 29.5502H171.074L165.861 30.9458L162.558 33.8101H162.485L161.604 38.07L166.522 40.0531Z" fill="white" stroke="#7B7B7B" stroke-miterlimit="10"/>
<path d="M118.366 141.262L119.1 137.369C119.1 137.369 119.1 135.239 119.1 134.211C119.1 133.183 116.971 132.448 116.971 132.448C116.971 132.448 116.237 130.318 116.237 129.29C116.237 128.262 117.998 128.556 117.998 128.556L119.394 124.296L121.523 120.403L119.76 118.641C119.76 118.641 115.135 116.143 113.74 115.483C112.346 114.748 111.978 112.324 111.978 112.324C111.978 112.324 108.455 112.691 107.354 112.691C106.252 112.691 104.197 116.364 104.197 116.364L105.151 122.974V125.839V132.448L107.501 138.618L111.759 141.923L113.668 143.833L113.74 144.714C114.915 144.053 116.016 143.392 116.604 142.878C118.366 141.262 118.366 141.262 118.366 141.262Z" fill="white" stroke="#7B7B7B" stroke-miterlimit="10"/>
<path d="M123.648 126.352L125.043 129.511L124.309 132.008L127.465 132.743L130.622 134.873L134.881 138.398H138.404C138.404 138.398 141.561 137.369 142.662 137.369C143.69 137.369 144.057 138.765 144.057 138.765L146.186 140.527H148.315H150.811L153.967 137.369L157.858 134.505C157.858 134.505 158.886 132.008 158.886 130.98C158.886 129.951 159.254 127.822 159.254 127.822L161.015 125.324L159.254 124.589H156.097L153.967 123.194L154.335 121.799L155.363 118.935V116.07L154.995 113.573C154.995 113.573 154.629 111.81 153.967 110.708C153.234 109.68 151.472 109.313 151.472 109.313L145.819 108.578L144.424 111.076L141.267 113.573L137.376 112.544L135.614 116.07L133.485 119.963L128.2 119.595L124.309 118.567L120.711 119.522L121.519 120.33L119.391 124.223L121.152 124.589L123.648 126.352Z" fill="white" stroke="#7B7B7B" stroke-miterlimit="10"/>
<path d="M142.81 202.958C143.837 202.958 148.095 202.59 148.095 202.59L151.252 199.726C151.252 199.726 154.775 199.726 155.51 200.754C156.244 201.783 160.795 206.41 160.795 206.41L164.686 209.568L166.815 210.302L171.44 205.676L176.066 200.68L182.085 195.686L185.976 193.556C185.976 193.556 188.84 190.692 189.866 190.692C190.894 190.692 193.023 190.325 194.125 190.692C195.153 191.06 195.886 191.06 196.988 191.06C198.016 191.06 203.008 188.562 203.008 188.562L204.77 185.037L205.137 181.879L207.266 180.483L209.394 180.851C209.394 180.851 210.422 180.483 211.523 179.454C212.331 178.647 214.46 176.517 215.341 175.636C215.267 174.607 215.195 173.432 215.195 172.33C215.195 169.466 217.104 165.72 217.104 165.72L219.012 160.065V153.896L220.921 150.076L223.784 144.421L219.967 141.557L220.921 137.296L225.178 134.947L228.996 131.641L225.178 131.201C225.178 131.201 219.012 129.291 216.223 127.381C213.359 125.472 214.313 125.986 212.919 124.517C211.523 123.121 210.056 120.698 210.056 120.698L205.797 120.257C205.797 120.257 205.797 120.257 204.403 120.257C203.008 120.257 201.54 122.167 201.54 122.167L199.63 121.211C199.63 121.211 199.63 118.347 200.586 116.952C201.54 115.557 201.026 114.087 201.026 114.087L201.467 110.342L198.163 109.901C198.163 109.901 197.208 107.991 197.208 106.596C197.208 105.2 198.604 104.687 198.604 104.687L199.558 101.382C199.558 101.382 199.117 99.4717 199.117 98.0765C199.117 96.6803 201.026 93.3755 201.026 93.3755L205.284 90.5111L209.101 89.5563L211.01 84.8557L208.147 80.1552L204.843 77.2908L202.494 73.0308C202.494 73.0308 200.145 73.4716 194.492 70.1664L193.538 63.9969L193.097 59.2964L191.188 58.3415H186.93L185.021 59.2964L181.204 60.2512L177.901 58.8557L179.81 54.1551L181.718 50.3359L180.323 47.9856L176.506 49.8952L173.203 51.8049L170.339 50.4093L169.384 45.7088L166.521 40.0534L161.31 38.1438L162.19 33.8839L158.447 35.2794L152.793 36.2342L149.49 38.1438L149.049 42.8443L147.14 43.7992L141.929 40.9347L137.67 40.4941L134.807 40.9347L129.595 43.7992L125.337 47.1042L124.896 51.3642L125.851 55.1833L128.714 57.093C128.714 57.093 130.109 57.5337 132.531 57.093C134.881 56.6523 137.23 57.5337 137.23 57.5337L139.138 58.9291L137.744 61.2794L136.79 63.6298L132.972 64.0704L131.064 66.4207L129.155 67.3755L128.714 69.7258L131.064 73.545V77.3642L129.155 78.7597L127.246 77.8049L124.382 74.9404L124.823 71.6354H122.473C122.473 71.6354 121.079 73.0308 119.61 73.0308C118.143 73.0308 115.353 73.0308 115.353 73.0308L113.958 74.9404L117.262 76.3359C117.262 76.3359 119.61 77.7315 120.125 79.2004C120.565 80.5958 121.079 84.4151 121.079 84.4151L117.262 85.3698L116.821 87.7202L115.866 90.5846V98.5902C115.866 98.5902 115.866 103.805 115.866 105.2C115.866 106.596 112.563 106.596 112.563 106.596L113.003 102.336L111.095 95.7259L105.442 94.771L101.625 95.2116L100.67 99.031V103.731V109.387L102.579 113.647L103.973 115.997C103.973 115.997 106.103 112.324 107.13 112.324C108.158 112.324 111.755 111.958 111.755 111.958C111.755 111.958 112.123 114.454 113.518 115.116C114.912 115.85 119.537 118.274 119.537 118.274L120.491 119.229L124.089 118.274L127.98 119.302L133.265 119.669L135.394 115.776L137.156 112.251L141.047 113.28L144.204 110.782L145.599 108.285L151.252 109.019C151.252 109.019 153.013 109.387 153.747 110.416C154.482 111.443 154.775 113.28 154.775 113.28L155.143 115.776V118.641L154.115 121.505L153.747 122.901L155.876 124.297H159.033L160.795 125.031L159.033 127.528C159.033 127.528 158.666 129.658 158.666 130.686C158.666 131.714 157.638 134.212 157.638 134.212L153.747 137.076L150.591 140.235H148.095H145.966L143.837 138.472C143.837 138.472 143.47 137.076 142.442 137.076C141.414 137.076 138.184 138.105 138.184 138.105H134.66L130.402 134.579L127.246 132.449L124.089 131.714L124.823 129.218L123.428 126.06L120.932 124.297L119.17 123.929L117.775 128.189C117.775 128.189 116.013 127.822 116.013 128.924C116.013 129.951 116.747 132.082 116.747 132.082C116.747 132.082 118.877 132.816 118.877 133.844C118.877 134.873 118.877 137.002 118.877 137.002L118.143 140.895C118.143 140.895 118.143 140.895 116.381 142.29C115.793 142.731 114.692 143.393 113.518 144.127L113.884 147.505L112.49 150.811L114.399 153.161L116.307 156.98H112.49L107.277 156.539L103.46 156.099L97.8067 157.494C97.8067 157.494 96.4121 161.314 96.4121 162.709C96.4121 164.104 99.7157 165.06 99.7157 165.06L103.019 164.619C103.019 164.619 105.882 166.528 105.882 169.319C105.882 172.184 107.277 175.489 107.277 175.489L111.095 175.929L114.912 172.111H119.17L118.729 177.765L115.866 180.116V185.771L116.821 189.591C116.821 189.591 120.638 195.245 120.638 196.715C120.638 198.11 125.851 202.884 125.851 202.884L129.155 204.794L137.082 203.399C137.156 203.619 141.708 202.958 142.81 202.958Z" fill="white" stroke="#7B7B7B" stroke-miterlimit="10"/>
<path d="M159.843 233.071L157.713 231.308L153.089 229.178C153.089 229.178 151.693 228.81 150.592 229.178C149.564 229.545 148.096 230.206 148.096 230.206C148.096 230.206 147.729 233.071 147.729 234.098C147.729 235.127 147.363 235.495 147.729 237.624C148.096 239.754 149.492 241.149 149.492 242.252C149.492 243.353 151.253 245.777 151.253 245.777C151.253 245.777 152.281 246.805 153.749 246.805C155.144 246.805 155.511 249.67 155.511 249.67C155.511 249.67 155.144 250.698 155.144 251.799C155.144 252.828 155.144 255.324 155.144 255.324L157.64 258.85L157.273 260.613C157.273 260.613 155.144 259.217 155.511 262.375C155.878 265.534 159.402 267.37 159.402 267.37L160.282 268.766H162.632L166.89 265.24C166.89 265.24 169.02 263.478 169.02 262.375C169.02 261.347 169.386 259.511 169.386 259.511V255.765L166.523 252.607L165.495 249.743C165.495 249.743 164.101 246.218 164.101 245.116C164.101 244.088 165.129 241.223 165.129 241.223L165.495 236.596L166.229 233.438H163.366L159.843 233.071Z" fill="white" stroke="#7B7B7B" stroke-miterlimit="10"/>
<path d="M191.703 309.674C191.336 307.912 190.969 305.783 190.676 304.68C190.308 303.652 190.308 301.816 190.308 299.686C190.308 297.556 188.546 297.188 188.546 297.188L183.922 294.324L180.765 293.957L178.636 296.455C178.636 296.455 174.377 297.482 173.349 297.482C172.323 297.482 171.221 297.482 171.221 297.482L169.458 295.353L168.432 291.46L166.303 290.065L165.935 294.692L164.541 298.217L160.282 295.72C160.282 295.72 158.521 292.562 157.786 289.33C157.052 286.172 157.052 284.042 157.052 282.941C157.052 281.912 158.08 279.048 158.08 279.048L160.209 273.392L159.475 268.766H160.356L159.475 267.369C159.475 267.369 155.951 265.607 155.584 262.375C155.217 259.217 157.346 260.612 157.346 260.612L157.712 258.85L155.217 255.324C155.217 255.324 155.217 252.828 155.217 251.799C155.217 250.771 155.584 249.669 155.584 249.669C155.584 249.669 155.217 246.805 153.822 246.805C152.427 246.805 151.326 245.777 151.326 245.777C151.326 245.777 149.564 243.279 149.564 242.251C149.564 241.222 148.169 239.754 147.803 237.624C147.435 235.493 147.803 235.127 147.803 234.098C147.803 233.07 148.169 230.205 148.169 230.205C148.169 230.205 149.564 229.471 150.666 229.177C151.693 228.81 153.161 229.177 153.161 229.177L157.786 231.308L159.915 233.07L163.44 233.438H166.303L168.798 230.94L171.661 228.81L173.056 229.839H176.213L177.608 228.444V225.652L175.112 222.494L172.983 219.996L170.854 217.5C170.854 217.5 169.092 215.37 168.358 214.341C167.623 213.313 166.963 210.449 166.963 210.449L164.834 209.714L160.943 206.556C160.943 206.556 156.318 201.929 155.658 200.9C154.923 199.873 151.399 199.873 151.399 199.873L148.243 202.737C148.243 202.737 143.985 203.104 142.957 203.104C141.929 203.104 137.304 203.838 137.304 203.838L129.375 205.234L127.026 207.584L121.814 209.935L119.905 205.674C119.905 205.674 118.511 202.369 117.996 200.974C117.556 199.579 113.738 196.274 113.738 196.274L107.572 193.409L100.965 191.059L96.7069 188.194L91.054 184.375L87.2364 186.725L87.677 193.335L85.7682 192.895L81.5103 188.635L77.2523 189.076L73.4348 191.426V195.686L77.2523 198.55L77.6928 202.369L73.4348 207.584L68.7364 207.144L67.782 204.279L68.2226 200.974L67.2681 196.274L63.9645 198.623L61.6154 200.533L56.9169 200.974L55.0082 204.793L52.1451 209.054L47.8871 212.359C47.8871 212.359 46.4922 213.754 46.4922 216.177C46.4922 218.528 46.4922 218.528 46.4922 218.528C46.4922 218.528 47.4466 220.878 49.3554 220.437C51.2641 219.996 51.2641 219.996 51.2641 219.996L55.0816 220.952L53.1729 223.301L54.1272 227.121L58.8257 225.211H60.7344L61.6887 231.822V238.946L65.9467 238.505C65.9467 238.505 67.3416 236.596 67.8555 235.2C68.296 233.804 69.7642 234.245 70.7185 235.64C71.6729 237.037 73.5817 238.505 73.5817 238.505L78.7939 236.155L80.7028 233.291L82.0976 238.946L80.4825 246.217V254.223L80.923 263.698L82.3178 267.957L84.667 272.657L83.2723 275.522L81.3634 279.782L84.2265 283.088V285.952L82.3178 289.257V292.562L77.6193 296.822L76.665 299.686L79.0142 300.127H83.2723L86.5758 302.478L89.4388 306.296L90.8337 310.115L94.6512 315.33L97.5141 317.681C97.5141 317.681 97.5141 317.754 97.588 317.828C99.2763 317.24 101.111 316.652 101.626 316.506C102.653 316.138 105.516 315.771 106.618 315.477C107.646 315.109 108.747 314.743 110.141 313.347C111.536 311.952 111.536 311.218 113.298 309.455C115.06 307.692 115.06 307.325 115.06 307.325C115.06 307.325 117.923 304.167 119.318 303.432C120.712 302.697 123.209 302.037 123.209 302.037L127.466 301.302L134.221 304.827L134.588 307.692L138.112 310.556L141.636 311.29H144.131L146.26 309.895C146.26 309.895 149.417 310.924 151.253 311.29C153.014 311.658 153.382 310.262 153.382 310.262C153.382 310.262 155.877 310.262 156.905 310.262C157.933 310.262 159.034 309.895 159.034 309.895L161.897 308.132L164.394 309.161C164.394 309.161 165.422 313.054 165.788 314.155C166.156 315.183 166.156 316.652 166.156 317.681C166.156 318.708 166.156 322.675 166.156 322.675L166.889 324.437L170.046 321.573L171.808 320.545L172.542 322.307L172.909 325.465L176.8 326.494L179.957 325.465L181.352 324.07L182.747 321.573L184.876 320.839C184.876 320.839 187.005 322.234 187.739 323.336C188.473 324.364 188.473 325.099 188.473 325.099H190.602V320.105L193.098 316.212C193.171 316.065 192.07 311.511 191.703 309.674Z" fill="white" stroke="#7B7B7B" stroke-miterlimit="10"/>
<path d="M181.426 285.217C181.426 283.454 182.82 282.059 182.82 282.059L183.848 279.563L185.977 277.065L186.344 274.567L183.848 271.409L182.82 267.884L179.957 266.489L176.801 267.884L174.304 266.489L172.909 262.963L170.414 261.201L169.165 260.833C169.092 261.421 169.018 262.082 169.018 262.596C169.018 263.625 166.89 265.461 166.89 265.461L162.632 268.986H159.475L160.21 273.613L158.08 279.269C158.08 279.269 157.053 282.133 157.053 283.161C157.053 284.189 157.053 286.319 157.787 289.551C158.52 292.709 160.282 295.94 160.282 295.94L164.54 298.438L165.936 294.913L166.302 290.286L168.431 291.681L169.459 295.574L171.221 297.703C171.221 297.703 172.249 297.703 173.35 297.703C174.378 297.703 178.636 296.675 178.636 296.675L180.764 294.178H180.911C181.352 292.049 182.527 289.918 182.527 289.918C182.527 289.918 181.426 286.98 181.426 285.217Z" fill="white" stroke="#7B7B7B" stroke-miterlimit="10"/>
<path d="M198.09 319.664L201.981 321.426L203.375 322.822L205.872 323.849C205.872 323.849 210.496 323.483 211.524 322.454C212.552 321.426 214.681 323.189 214.681 323.189L218.938 323.556L223.564 320.691L227.821 316.432L229.217 312.172V310.042C229.217 310.042 229.217 306.516 229.217 305.415C229.217 304.386 232.08 304.386 232.08 304.386L236.338 303.652L237.732 299.759C237.732 299.759 235.971 296.601 233.842 294.765C231.712 293.002 233.841 294.765 232.814 295.499C231.786 296.234 227.161 294.471 227.161 294.471C227.161 294.471 224.665 292.708 223.638 292.708C222.61 292.708 220.775 292.708 219.747 292.708C218.719 292.708 217.618 292.341 216.884 290.212C216.149 288.082 217.618 287.053 217.618 287.053L220.481 282.794L222.61 281.397L220.848 278.901V274.274C220.848 274.274 220.848 274.274 221.875 273.907C222.903 273.539 222.242 270.749 222.242 269.279C222.242 267.884 221.215 267.516 221.215 266.415C221.215 265.387 221.948 262.889 221.948 262.889V260.025L220.187 256.5C220.187 256.5 218.425 255.471 218.058 254.37C217.691 253.341 216.663 253.635 215.562 252.974C214.534 252.24 216.296 250.844 216.296 250.844L219.82 249.449L221.582 247.319L223.711 248.347L225.105 250.477L227.602 250.844L228.336 247.979C228.336 247.979 227.235 245.483 227.235 244.454C227.235 243.426 225.839 241.957 225.839 241.957L226.207 239.827L229.73 239.46L231.859 237.697L234.356 235.934L237.879 237.329L240.742 239.46L242.871 239.092L242.504 235.567L240.742 232.041L242.504 228.516L245.367 228.149L247.864 227.415L251.021 225.284L254.177 225.652L255.939 227.415L258.068 228.443L259.83 225.578L261.592 223.082L263.721 222.053L266.877 222.42L268.64 224.918L271.503 226.681L273.265 228.81L275.76 229.545L277.889 229.177H280.752L283.249 228.149V225.652C283.249 225.652 281.486 223.155 281.486 221.759C281.486 220.364 283.249 218.601 283.249 218.601L283.983 215.737L285.745 212.579L288.902 211.55L289.635 209.42L291.031 208.025H294.922L297.417 205.161L297.785 202.663H300.28L304.906 200.9L306.447 198.991C305.713 198.917 301.749 198.476 300.427 197.595C299.033 196.641 296.61 194.731 296.61 194.731L292.792 192.822L289.488 193.776C289.488 193.776 285.231 193.335 284.79 191.866C284.35 190.471 283.836 187.166 283.836 187.166L279.578 185.771L276.275 187.681H271.062L269.153 187.24V184.376L271.503 182.466L274.806 181.511L276.201 179.16C276.201 179.16 272.897 177.765 271.503 177.251C270.108 176.81 265.336 174.386 265.336 174.386L262.473 176.296C262.473 176.296 260.123 176.296 256.82 176.296C253.516 176.296 253.957 178.646 252.562 178.646C251.168 178.646 248.304 180.556 248.304 180.556L245.441 178.646C245.441 178.646 245.441 174.827 245.001 173.432C244.56 172.037 243.092 170.127 243.092 170.127L239.788 170.567C239.788 170.567 235.971 172.476 234.135 174.827V178.646L233.181 180.996L230.832 182.392C230.832 182.392 224.225 182.392 219.966 181.437C215.709 180.483 215.709 178.573 215.709 178.573C215.709 178.573 215.562 177.325 215.415 175.708C214.534 176.59 212.405 178.72 211.598 179.527C210.57 180.556 209.468 180.923 209.468 180.923L207.339 180.556L205.211 181.951L204.844 185.109L203.082 188.635C203.082 188.635 198.09 191.132 197.062 191.132C196.034 191.132 195.3 191.132 194.199 190.765C193.171 190.398 191.042 190.765 189.941 190.765C188.913 190.765 186.05 193.629 186.05 193.629L182.159 195.759L176.139 200.753L171.514 205.748L166.889 210.375C166.889 210.375 167.623 213.239 168.284 214.268C169.018 215.296 170.78 217.426 170.78 217.426L172.909 219.923L175.038 222.42L177.534 225.578V228.443L176.139 229.839H172.983L171.588 228.81L168.725 230.94L166.228 233.438L165.494 236.596L165.128 241.222C165.128 241.222 164.1 244.087 164.1 245.115C164.1 246.143 165.494 249.742 165.494 249.742L166.522 252.607L169.385 255.765V259.658C169.385 259.658 169.311 260.099 169.238 260.686L170.486 261.053L172.983 262.816L174.377 266.341L176.874 267.737L180.03 266.341L182.893 267.737L183.921 271.262L186.417 274.42L186.05 276.918L183.921 279.415L182.893 281.912C182.893 281.912 181.498 283.307 181.498 285.07C181.498 286.832 182.526 289.697 182.526 289.697C182.526 289.697 181.352 291.828 180.911 293.957L183.921 294.324L188.546 297.189C188.546 297.189 190.308 297.556 190.308 299.686C190.308 301.816 190.308 303.579 190.674 304.68C191.042 305.709 191.409 307.839 191.702 309.674C192.07 311.437 193.098 316.065 193.098 316.065L191.996 317.827L194.565 318.929L198.09 319.664Z" fill="white" stroke="#7B7B7B" stroke-miterlimit="10"/>
<path d="M68.0037 390.246C68.0037 390.246 67.2696 392.376 67.2696 394.139C67.2696 395.902 68.6645 397.297 68.6645 397.297C68.6645 397.297 69.3986 399.427 69.3986 400.455C69.3986 401.483 71.5276 402.218 71.5276 402.218L74.0236 401.483L76.8867 401.85L79.0157 403.245L81.5118 402.879L82.5396 400.014L85.6962 398.986L89.2201 396.856C89.2201 396.856 90.982 394.358 91.7162 392.963C92.4503 391.568 92.0833 389.07 92.0833 389.07C92.0833 389.07 93.1109 386.206 93.8451 385.178C94.5792 384.15 98.4696 383.782 98.4696 383.782H103.756L106.252 384.517C106.252 384.517 108.014 385.912 108.381 387.015C108.748 388.042 110.877 391.641 110.877 391.641L111.611 395.167L113.74 396.562L116.237 394.799L116.603 389.511L119.76 386.353L122.917 385.618L125.78 387.748L126.514 391.641L124.752 394.505L125.78 397.37V400.896L123.283 403.026L122.256 404.789L125.78 405.89L128.276 408.754L130.405 408.02C130.405 408.02 132.9 407.285 134.296 407.285C135.691 407.285 136.791 406.918 137.819 406.918C138.847 406.918 139.582 406.918 140.976 406.184C142.371 405.449 143.839 406.551 143.839 406.551L148.465 409.048H151.621L156.247 409.783L160.504 408.754L164.028 405.229L167.184 405.963C167.184 405.963 169.314 406.331 171.81 406.331C174.306 406.331 174.966 407.726 175.701 408.828C176.435 409.856 178.197 410.958 180.326 411.987C182.455 413.014 180.326 411.987 181.354 410.958C182.381 409.93 180.986 408.828 180.986 408.828C180.986 408.828 181.354 403.833 182.748 402.438C184.143 401.043 187.374 401.409 187.374 401.409L189.135 398.545L188.107 395.681C188.107 395.681 187.74 393.918 187.74 392.816C187.74 391.715 187.74 391.053 187.374 388.557C187.006 386.059 186.639 387.162 185.612 385.031C184.584 382.901 183.849 382.534 183.849 382.534L184.584 378.641L187.08 374.014L187.813 370.121L191.338 360.206C191.338 360.206 193.1 357.709 194.201 355.946C195.229 354.183 197.064 352.053 197.724 350.952C198.458 349.851 201.249 347.426 201.249 347.426H204.405L209.031 344.93C209.031 344.93 210.792 343.901 211.894 343.167C212.921 342.432 214.022 341.037 215.417 339.274C216.812 337.512 216.812 337.144 216.812 337.144L219.968 335.014L219.602 330.755L218.574 328.992L216.077 325.099L216.518 323.483L214.683 323.336C214.683 323.336 212.554 321.574 211.526 322.602C210.498 323.63 205.874 323.997 205.874 323.997L203.377 322.969L201.983 321.574L198.092 319.811L194.567 319.076L191.998 317.975L190.677 320.105V325.099H188.548C188.548 325.099 188.547 324.364 187.813 323.336C187.08 322.234 184.95 320.839 184.95 320.839L182.821 321.574L181.427 324.07L180.032 325.467L176.875 326.494L172.984 325.467L172.617 322.308L171.884 320.545L170.121 321.574L166.965 324.438L166.23 322.675C166.23 322.675 166.23 318.782 166.23 317.681C166.23 316.579 166.23 315.183 165.864 314.155C165.496 313.128 164.468 309.161 164.468 309.161L161.973 308.132L159.11 309.895C159.11 309.895 158.082 310.263 156.98 310.263C155.953 310.263 153.456 310.263 153.456 310.263C153.456 310.263 153.09 311.658 151.328 311.291C149.565 310.924 146.336 309.895 146.336 309.895L144.207 311.291H141.71L138.187 310.556L134.663 307.692L134.296 304.827L127.542 301.302L123.283 302.037C123.283 302.037 120.788 302.771 119.393 303.432C117.998 304.167 115.135 307.325 115.135 307.325C115.135 307.325 115.135 307.692 113.373 309.455C111.611 311.218 111.611 311.952 110.217 313.347C108.821 314.743 107.72 315.11 106.692 315.477C105.664 315.845 102.801 316.212 101.7 316.506C101.187 316.653 99.3507 317.313 97.6625 317.828C97.9562 318.416 98.7633 320.471 97.5896 320.471C96.194 320.471 94.7261 321.427 93.3312 321.427C91.9363 321.427 89.0733 321.427 89.0733 321.427L81.9523 320.471L78.6486 322.822L80.0435 324.732L83.8609 325.173L85.7697 325.613L86.7241 328.918L87.6785 333.619L91.4959 332.663L99.057 331.709L107.06 330.314L107.5 333.178C107.5 333.178 105.591 335.087 104.197 335.087C102.801 335.087 101.847 335.087 100.379 335.087C98.9841 335.087 96.1211 335.528 96.1211 335.528C96.1211 335.528 93.7718 336.924 94.7261 338.833C95.6805 340.743 98.9841 342.138 98.9841 342.138L101.334 345.002L102.728 348.308L98.4696 347.867L95.1671 345.002H93.2578L89.9543 345.443L85.2558 350.145L82.3927 354.845L78.1348 355.799L72.482 358.664L69.1783 361.528C69.1783 361.528 68.7379 363.438 69.1783 365.788C69.6189 368.138 72.0415 369.608 72.0415 369.608L77.2538 369.167L85.7697 370.562L89.0733 373.426L85.2558 373.867H81.9523L80.0435 374.308L74.8313 375.262L71.5276 377.172L67.2696 380.477L64.2598 384.297C65.3609 385.472 66.3153 386.574 66.6089 387.015C67.2696 388.116 68.0037 390.246 68.0037 390.246Z" fill="white" stroke="#7B7B7B" stroke-miterlimit="10"/>
<path d="M197.355 448.709C197.355 446.579 196.327 446.212 195.593 444.082C194.859 441.951 192.73 442.319 192.73 442.319C192.73 442.319 189.573 438.06 189.573 435.562C189.573 433.065 188.545 431.303 188.545 431.303L185.388 430.274C185.388 430.274 182.893 427.777 182.525 426.748C182.159 425.721 182.525 424.986 182.525 422.489C182.525 419.991 181.791 418.229 181.791 417.201C181.791 416.172 182.525 413.675 182.525 413.675L181.204 411.251C180.91 412.132 182.232 412.794 180.396 411.913C178.268 410.884 176.505 409.783 175.771 408.754C175.037 407.726 174.377 406.257 171.88 406.257C169.385 406.257 167.256 405.89 167.256 405.89L164.099 405.155L160.575 408.68L156.317 409.709L151.692 408.974H148.535L143.911 406.478C143.911 406.478 142.515 405.375 141.047 406.11C139.652 406.844 138.918 406.844 137.89 406.844C136.863 406.844 135.761 407.212 134.367 407.212C132.972 407.212 130.476 407.946 130.476 407.946L128.347 408.68L125.85 405.816L122.327 404.715L123.355 402.952L125.85 400.822V397.297L124.823 394.432L126.585 391.568L125.85 387.675L122.987 385.545L119.83 386.279L116.674 389.437L116.307 394.726L113.811 396.488L111.682 395.093L110.948 391.568C110.948 391.568 108.819 388.042 108.452 386.941C108.084 385.838 106.323 384.443 106.323 384.443L103.827 383.708H98.5413C98.5413 383.708 94.6502 384.076 93.9161 385.105C93.182 386.132 92.1542 388.998 92.1542 388.998C92.1542 388.998 92.5213 391.494 91.7872 392.889C91.053 394.286 89.2911 396.782 89.2911 396.782L85.7672 398.912L82.6105 399.94L81.5827 402.805L79.0867 403.172L76.9576 401.776L74.0947 401.409L71.5986 402.144C71.5986 402.144 69.4696 401.409 69.4696 400.381C69.4696 399.353 68.7354 397.223 68.7354 397.223C68.7354 397.223 67.3406 395.828 67.3406 394.065C67.3406 392.302 68.0747 390.172 68.0747 390.172C68.0747 390.172 67.3406 388.042 66.6798 387.014C66.3861 386.573 65.4318 385.472 64.3306 384.296L63.5965 385.252L61.6879 388.557L60.7334 392.302V395.607L57.8703 397.517L56.4755 399.427L54.1263 404.127L49.4278 406.478L47.519 411.178V414.042L52.2175 415.952L55.5211 422.562L60.2196 428.217L63.0827 430.127L62.1283 432.477L58.3108 434.828L56.4021 437.692L53.0984 433.432L49.7948 434.828C49.7948 434.828 48.8405 435.782 49.7948 437.178C50.7492 438.573 50.7492 438.573 50.7492 438.573L48.4 441.879L46.4913 444.743L44.1421 447.607L47.9595 449.958L52.2175 449.517L54.1263 454.218L51.2631 458.477C51.2631 458.477 48.4 460.828 48.4 462.297C48.4 463.692 48.4 469.421 48.4 469.421L49.7948 473.24L54.4933 475.15L58.3108 478.014L62.5688 481.319V485.138L58.7513 484.184L54.9338 479.924L50.6758 478.968L48.7672 479.924V482.788L51.1164 486.093V490.794L47.2989 489.839C47.2989 489.839 46.8583 485.138 46.3445 483.67C45.904 482.274 44.4358 478.455 44.4358 478.455L42.0865 476.545L38.269 476.104C38.269 476.104 35.9199 478.014 35.9199 479.409C35.9199 480.805 36.8742 485.065 36.8742 485.065L38.7829 488.811C38.7829 488.811 42.0866 492.63 43.9953 494.98C45.904 497.33 46.8583 499.24 48.2532 499.24C49.6481 499.24 52.5111 499.681 52.5111 499.681L54.4199 504.896L55.3743 509.596L58.2374 511.947L56.8426 515.252L55.8882 518.116C55.8882 518.116 55.4477 519.071 55.4477 520.981C55.4477 522.89 57.3564 527.15 57.3564 527.15L59.2651 530.455L63.5232 530.015C63.5232 530.015 65.8723 529.059 67.3406 527.15C68.7354 525.24 69.2494 523.845 69.6899 521.494C70.1303 519.144 72.0391 518.189 72.0391 518.189L78.6462 514.37L82.4636 513.415C82.4636 513.415 84.8129 511.506 84.8129 510.11C84.8129 508.715 86.7216 502.104 86.7216 502.104L90.539 498.286C90.539 498.286 91.9339 501.15 91.4935 502.545C91.053 503.94 90.539 504.455 90.539 506.805C90.539 509.155 90.9796 512.461 91.4935 513.93C91.9339 515.325 93.8427 516.794 93.8427 516.794C93.8427 516.794 95.2376 517.235 96.7061 517.235C98.1007 517.235 102.873 516.279 102.873 516.279C102.873 516.279 103.827 514.884 105.221 513.415C106.617 512.02 107.571 510.11 107.571 510.11L109.921 506.291L111.315 502.545V497.845L112.71 495.494L116.527 493.585L118.436 492.189L123.649 489.325L128.347 488.37L134 485.506L139.212 481.246L143.03 482.641L145.893 483.082L147.801 486.901L144.938 492.557L143.984 489.252L140.167 488.296L137.817 491.161V495.862L134.513 500.121L132.604 499.681L129.301 500.121C129.301 500.121 123.134 502.031 123.134 503.427C123.134 504.822 125.043 509.596 125.043 509.596C125.043 509.596 127.393 510.037 128.86 510.037C130.256 510.037 132.164 510.037 133.559 510.037C134.954 510.037 135.908 508.642 137.377 510.991C138.771 513.342 140.24 515.692 140.24 515.692L142.589 521.347L145.452 520.907C145.452 520.907 145.452 518.997 146.406 517.602C147.36 516.206 149.269 516.206 149.269 516.206C149.269 516.206 150.223 515.766 151.619 513.856C153.014 511.947 154.923 511.506 154.923 511.506V508.642C154.923 508.642 153.527 505.337 154.923 505.337C156.317 505.337 159.18 504.381 159.18 504.381L162.997 503.427L163.952 499.608L162.558 496.303L157.859 491.601C157.859 491.601 154.555 488.737 154.555 487.342C154.555 485.947 154.555 480.218 154.555 480.218L157.418 475.957L164.025 472.138H171.147C171.147 472.138 171.588 473.534 172.101 475.003C172.542 476.398 174.964 480.659 174.964 480.659L174.523 484.918L172.614 488.223V493.438L175.477 497.257L178.341 498.652L179.736 496.743V492.042L182.599 488.223H187.297L192.51 490.574L194.418 488.664V484.404C194.418 484.404 194.859 481.539 194.859 480.144C194.859 478.749 194.859 473.974 194.859 473.974L191.555 473.02C191.555 473.02 187.738 473.974 186.343 473.974C184.948 473.974 179.222 472.579 179.222 472.579L177.314 467.364L178.268 465.014H182.525H186.343L187.811 463.912L188.251 460.681L191.776 457.817C191.776 457.817 195.299 457.449 196.768 455.319C198.162 453.189 198.162 453.189 198.162 453.189C198.162 453.189 197.355 450.838 197.355 448.709ZM117.261 429.906L116.233 432.404C116.233 432.404 115.206 434.534 113.738 434.902C112.343 435.268 112.71 436.297 112.71 436.297L109.847 435.929L107.718 434.902L102.726 436.297L98.1007 435.929L94.9439 436.297L92.8149 433.799L90.3189 431.303L86.4279 430.274L83.2713 428.879C83.2713 428.879 83.2713 428.879 82.2434 427.116C81.2157 425.353 81.2157 424.252 81.2157 423.223C81.2157 422.195 82.6105 420.065 82.6105 420.065L84.3724 418.302C84.3724 418.302 87.5291 415.144 88.2633 414.042C88.9974 413.014 91.7872 412.647 91.7872 412.647L96.779 415.511L103.167 414.115C103.167 414.115 106.03 413.088 107.057 413.088C108.084 413.088 109.186 413.088 109.186 413.088L112.343 415.952L114.839 420.212L117.702 422.342C117.702 422.342 119.097 424.839 119.097 425.868C119.023 426.748 117.261 429.906 117.261 429.906Z" fill="white" stroke="#7B7B7B" stroke-miterlimit="10"/>
<path d="M114.765 419.992L112.27 415.731L109.113 412.867C109.113 412.867 108.085 412.867 106.984 412.867C105.956 412.867 103.093 413.895 103.093 413.895L96.7056 415.291L91.7141 412.426C91.7141 412.426 88.8509 412.794 88.1902 413.823C87.456 414.851 84.2992 418.082 84.2992 418.082L82.5375 419.845C82.5375 419.845 81.1426 421.975 81.1426 423.003C81.1426 424.105 81.1426 425.133 82.1703 426.896C83.1982 428.658 83.1981 428.658 83.1981 428.658L86.3548 430.054L90.2458 431.082L92.7417 433.579L94.8707 436.077L98.0273 435.709L102.653 436.077L107.644 434.681L109.773 435.709L112.636 436.077C112.636 436.077 112.27 435.048 113.664 434.681C115.059 434.314 116.161 432.184 116.161 432.184L117.189 429.686C117.189 429.686 118.95 426.528 118.95 425.427C118.95 424.325 117.555 421.901 117.555 421.901L114.765 419.992Z" fill="white" stroke="#7B7B7B" stroke-miterlimit="10"/>
<path d="M358.352 417.494L356.957 415.731L353.066 414.997L349.909 415.365L348.147 416.392L344.624 417.788C344.624 417.788 343.89 417.054 343.229 418.155C342.495 419.183 341.467 421.019 339.705 422.048C337.944 423.076 338.971 424.178 335.814 424.545C332.657 424.912 332.657 424.912 332.657 424.912C332.657 424.912 331.262 426.307 330.162 427.41C329.134 428.438 327.299 430.568 327.299 430.568C327.299 430.568 326.564 430.935 324.435 431.303C322.307 431.669 321.572 431.303 320.177 432.036C318.782 432.771 315.553 433.432 315.553 433.432C315.553 433.432 313.79 434.534 312.69 436.297C311.662 438.059 313.717 436.664 311.662 438.059C309.533 439.455 307.771 438.427 307.036 439.455C306.302 440.556 307.036 438.72 306.302 440.556C305.568 442.319 307.33 442.686 307.33 443.715C307.33 444.743 307.697 446.579 307.697 446.579C307.697 446.579 306.963 448.342 306.302 449.737C306.082 450.104 305.715 450.912 305.201 451.867H306.596H309.899H315.112L318.929 450.912L321.792 449.517L322.233 454.731L325.536 455.172L328.84 454.731L332.657 456.128L333.612 452.308L337.429 451.867L341.246 448.562C346.9 447.167 349.249 442.907 349.249 442.907L352.112 435.782L353.507 432.918L356.37 428.217L358.719 424.912L361.142 423.811C360.334 422.855 359.673 422.048 359.673 422.048L358.352 417.494Z" fill="white" stroke="#7B7B7B" stroke-miterlimit="10"/>
<path d="M373.254 380.991L367.234 380.257L364.739 382.019L361.214 382.754C361.214 382.754 360.848 382.387 360.187 381.359C359.453 380.33 357.691 377.466 357.691 377.466L356.296 374.602C356.296 374.602 355.562 374.968 352.405 373.867C349.248 372.839 349.248 372.839 349.248 372.839L346.385 372.104C346.385 372.104 345.651 371.371 344.623 372.104C343.595 372.839 341.466 374.235 341.466 374.235C341.466 374.235 340.072 374.602 338.97 376.731C337.943 378.861 337.575 380.991 337.575 380.991L334.712 381.359L332.583 384.223C332.583 384.223 333.611 388.483 332.583 388.851C331.555 389.217 329.427 390.246 329.427 390.246C329.427 390.246 328.692 393.11 329.06 394.139C329.427 395.167 334.052 398.031 334.052 398.031L337.209 398.398L339.338 401.263C339.338 401.263 342.201 402.291 342.494 403.392C342.861 404.421 343.522 405.523 344.991 406.918C346.385 408.314 347.12 407.947 347.854 409.048C348.587 410.077 350.349 411.178 350.349 411.178C350.349 411.178 351.377 412.941 351.377 414.042C351.377 414.263 351.45 414.704 351.524 415.291L353.139 415.144L357.03 415.878L358.425 417.641L359.453 422.269C359.453 422.269 360.187 423.076 360.92 424.031L363.711 422.782L366.06 418.964L366.501 416.099L366.94 412.279L368.336 408.534L371.199 405.229H373.107L376.925 400.969L377.879 393.845L378.834 386.28V384.296L379.201 383.489L377.145 383.122L373.254 380.991Z" fill="white" stroke="#7B7B7B" stroke-miterlimit="10"/>
<path d="M325.388 380.624C323.259 380.257 322.525 380.624 322.525 380.624L320.029 382.387C320.029 382.387 316.873 384.149 315.771 384.149C314.743 384.149 312.908 386.28 312.908 386.28L309.017 387.675H303.731C303.731 387.675 300.208 386.941 299.473 385.912C298.739 384.884 295.582 385.545 295.582 385.545L292.719 384.443L288.462 386.206L286.332 384.443L284.571 380.55L282.808 377.392L280.68 372.766L277.817 377.025C277.817 377.025 272.825 378.42 271.797 378.42C270.769 378.42 268.272 379.155 268.272 379.155H264.749L261.886 378.42C261.886 378.42 257.628 377.025 256.6 376.291C255.572 375.556 250.947 375.556 249.846 375.556C248.818 375.556 246.689 375.556 246.689 375.556L243.533 373.794L245.661 370.636L247.424 367.11L248.158 364.246L247.13 360.721L243.606 358.958C243.606 358.958 242.211 357.562 241.477 355.799C240.742 354.036 240.082 353.67 239.716 351.54C239.348 349.41 238.32 350.144 238.32 350.144H235.457L228.336 349.41L225.84 346.545L222.977 345.517L220.848 343.754L216.15 338.319C216.003 338.539 215.782 338.833 215.488 339.127C214.094 340.89 212.993 342.285 211.965 343.02C210.864 343.754 209.102 344.783 209.102 344.783L204.477 347.279H201.32C201.32 347.279 198.457 349.777 197.796 350.805C197.062 351.834 195.3 353.963 194.272 355.799C193.245 357.562 191.409 360.059 191.409 360.059L187.886 369.974L187.151 373.867L184.655 378.494L183.922 382.387C183.922 382.387 184.655 382.754 185.683 384.884C186.711 387.014 187.078 385.912 187.445 388.41C187.812 390.906 187.812 391.568 187.812 392.669C187.812 393.771 188.179 395.534 188.179 395.534L189.207 398.398L187.445 401.263C187.445 401.263 184.288 400.896 182.82 402.291C181.425 403.686 181.059 408.68 181.059 408.68C181.059 408.68 182.453 409.709 181.425 410.811C181.278 410.958 181.204 411.105 181.132 411.252L182.453 413.676C182.453 413.676 181.719 416.172 181.719 417.2C181.719 418.302 182.453 420.065 182.453 422.488C182.453 424.986 182.086 425.647 182.453 426.748C182.82 427.776 185.316 430.274 185.316 430.274L188.473 431.302C188.473 431.302 189.501 433.064 189.501 435.562C189.501 438.06 192.658 442.319 192.658 442.319C192.658 442.319 194.787 441.952 195.521 444.082C196.255 446.212 197.282 446.579 197.282 448.709C197.282 450.839 197.65 453.336 197.65 453.336C197.65 453.336 197.65 453.336 196.255 455.466C194.859 457.596 191.262 457.963 191.262 457.963L187.739 460.828L187.298 464.059L187.739 463.765L190.088 465.161L193.905 468.026L196.768 467.585L198.163 462.885L203.816 461.488H206.165L210.424 460.093L213.287 458.183L219.453 457.742C219.453 457.742 222.316 458.183 222.757 455.834C223.197 453.483 224.665 450.619 224.665 450.619H226.574L227.969 454.364V458.624L226.574 464.793L228.924 467.144L231.272 469.495L236.485 469.935H239.348L243.165 467.585H246.469L250.287 469.495L254.104 466.629L255.059 469.935L251.755 471.844L251.315 474.709C251.315 474.709 252.709 475.664 254.618 475.664C256.526 475.664 260.271 475.664 260.271 475.664L259.317 478.969L254.104 481.319L253.663 483.229C253.663 483.229 257.481 484.183 257.922 486.534C258.361 488.884 260.785 491.235 260.785 491.235L265.483 490.794C265.483 490.794 266.437 488.443 266.437 486.975C266.437 485.579 266.437 481.76 266.437 481.76L269.3 478.455L269.741 476.545L267.392 473.68L264.528 470.375V466.557C264.528 466.557 264.089 464.206 265.483 462.738C266.878 461.341 270.181 459.873 270.181 459.873L271.576 457.523L271.135 453.704L270.181 449.884L275.835 448.489C275.835 448.489 278.698 447.534 280.092 448.489C281.487 449.443 283.396 452.308 283.396 452.308L286.259 449.958L284.864 443.788L285.818 440.483C285.818 440.483 287.727 440.483 289.122 441.438C290.517 442.392 294.335 445.257 294.335 445.257C294.335 445.257 297.198 445.697 297.638 447.166C298.079 448.562 302.85 451.867 302.85 451.867H305.272C305.787 450.912 306.227 450.105 306.374 449.737C307.109 448.342 307.769 446.579 307.769 446.579C307.769 446.579 307.402 444.817 307.402 443.714C307.402 442.686 305.64 442.319 306.374 440.556C307.109 438.794 306.374 440.556 307.109 439.455C307.842 438.426 309.604 439.455 311.733 438.06C313.862 436.663 311.733 438.06 312.761 436.297C313.789 434.534 315.624 433.432 315.624 433.432C315.624 433.432 318.781 432.698 320.249 432.037C321.644 431.302 322.378 431.669 324.507 431.302C326.636 430.935 327.37 430.568 327.37 430.568C327.37 430.568 329.132 428.438 330.233 427.41C331.261 426.381 332.729 424.912 332.729 424.912C332.729 424.912 332.729 424.912 335.886 424.545C339.043 424.178 338.015 423.15 339.777 422.048C341.538 420.946 342.64 419.183 343.301 418.155C344.035 417.054 344.696 417.788 344.696 417.788L348.22 416.393L349.982 415.365L351.523 415.218C351.449 414.63 351.376 414.189 351.376 413.969C351.376 412.941 350.348 411.105 350.348 411.105C350.348 411.105 348.586 410.077 347.852 408.974C347.119 407.947 346.457 408.24 344.989 406.844C343.594 405.449 342.86 404.348 342.493 403.319C342.126 402.217 339.337 401.19 339.337 401.19L337.208 398.325L334.051 397.957C334.051 397.957 329.426 395.093 329.059 394.065C328.691 393.036 329.426 390.172 329.426 390.172C329.426 390.172 331.555 389.144 332.583 388.777C333.61 388.41 332.583 384.149 332.583 384.149L333.683 382.681C333.39 382.607 333.096 382.46 332.949 382.313C331.775 381.726 327.517 380.991 325.388 380.624Z" fill="white" stroke="#7B7B7B" stroke-miterlimit="10"/>
<path d="M282.545 367.844L285.408 366.449L289.299 366.081L291.06 369.974L294.585 370.342L297.742 368.946C297.742 368.946 298.108 365.788 298.108 364.686C298.108 363.658 299.503 360.427 299.503 360.427C299.503 360.427 300.237 359.03 300.531 357.929C300.898 356.901 300.898 356.166 300.898 355.065C300.898 354.036 300.898 352.567 300.898 352.567L301.926 350.437C301.926 350.437 301.926 350.437 304.789 350.437C307.652 350.437 307.652 348.675 307.652 348.675L306.918 346.545L305.156 343.68L306.184 341.184V338.319C306.184 338.319 305.45 335.455 304.789 334.426C304.055 333.325 300.531 333.031 300.531 333.031H293.41L288.418 335.896L284.527 339.054L283.132 342.212L281.737 345.076L278.58 344.709L278.214 341.184L276.451 340.155L271.827 340.89L268.669 344.048L267.275 345.811L269.037 348.675L274.029 349.703L276.525 351.099V353.963L274.029 355.359L269.771 356.093L268.009 360.721L270.138 364.98L270.872 367.478L269.477 369.24L267.715 370.636L265.22 368.873H263.824L264.192 371.369L265.22 373.867L266.981 375.63L267.349 379.155C267.349 379.155 269.844 378.42 270.872 378.42C271.9 378.42 276.892 377.025 276.892 377.025L279.755 372.766L280.269 373.867L280.857 371.369L282.545 367.844Z" fill="white" stroke="#7B7B7B" stroke-miterlimit="10"/>
<path d="M391.533 332.297L389.624 334.206L387.716 337.07L384.853 339.934L381.99 340.89C381.99 340.89 378.246 341.331 377.29 339.934C376.336 338.539 376.336 338.539 376.336 338.539L374.427 334.28L376.777 331.929L377.731 327.669C377.731 327.669 377.731 324.364 376.777 322.454C375.823 320.545 374.427 316.8 374.427 316.8C374.427 316.8 374.427 316.359 374.427 314.449C374.427 312.539 374.427 311.584 374.427 309.234C374.427 306.884 374.427 308.279 374.868 304.533C375.309 300.715 376.777 298.879 376.777 297.409C376.777 296.014 379.127 293.149 379.127 293.149L381.475 287.935L382.871 283.675C382.871 283.675 384.265 280.81 384.265 278.019C384.265 275.155 383.825 272.364 382.871 270.455C381.916 268.545 381.916 268.545 381.916 268.545C381.916 268.545 380.962 266.194 382.871 261.421C384.779 256.72 387.569 252.901 387.569 252.901L388.523 249.082L388.082 244.381L386.174 238.211C386.174 238.211 383.31 233.511 383.31 232.042C383.31 230.646 382.871 224.918 382.871 222.127C382.871 219.262 385.219 215.002 385.219 213.607C385.219 212.212 385.66 206.042 385.219 204.646C384.779 203.251 382.87 201.341 382.356 199.946C381.99 198.844 381.035 196.641 380.447 195.025L375.749 197.081L370.097 198.477L367.234 202.296L364.884 206.556C364.884 206.556 362.975 206.115 360.627 204.646C358.277 203.251 357.764 199.946 357.764 199.946L352.11 199.505L348.293 201.856H344.475C344.475 201.856 341.171 200.9 339.777 200.46C338.382 200.02 336.914 199.505 336.914 199.505L334.564 199.946L331.701 201.856L330.307 203.765L327.444 202.81L326.489 199.505L322.671 197.595H320.763L316.945 199.946L316.505 202.81L313.201 203.251L307.989 201.341L306.08 198.991C306.08 198.991 306.006 198.991 305.934 198.991L304.392 200.9L299.767 202.663H297.27L296.904 205.161L294.407 208.025H290.516L289.122 209.42L288.387 211.55L285.231 212.579L283.47 215.737L282.735 218.601C282.735 218.601 280.973 220.364 280.973 221.759C280.973 223.155 282.735 225.652 282.735 225.652V228.15L280.239 229.177H277.376L275.247 229.545L272.75 228.81L270.989 226.681L268.126 224.918L266.364 222.42L263.207 222.053L261.078 223.082L259.316 225.578L257.554 228.443L255.425 227.415L253.664 225.652L250.506 225.284L247.35 227.415L244.854 228.15L241.991 228.517L240.229 232.042L241.991 235.568L242.358 239.093L240.229 239.46L237.366 237.331L233.842 235.934L231.346 237.697L229.217 239.46L225.694 239.827L225.326 241.957C225.326 241.957 226.721 243.353 226.721 244.455C226.721 245.483 227.822 247.98 227.822 247.98L227.088 250.844L224.592 250.477L223.197 248.347L221.068 247.319L219.306 249.449L215.783 250.844C215.783 250.844 214.021 252.24 215.049 252.974C216.076 253.708 217.177 253.341 217.544 254.37C217.912 255.398 219.673 256.5 219.673 256.5L221.435 260.025V262.889C221.435 262.889 220.701 265.387 220.701 266.415C220.701 267.443 221.729 267.81 221.729 269.279C221.729 270.675 222.463 273.539 221.362 273.907C220.334 274.274 220.334 274.274 220.334 274.274V278.901L222.096 281.398L219.966 282.794L217.103 287.053C217.103 287.053 215.709 288.082 216.37 290.212C217.103 292.341 218.131 292.709 219.233 292.709C220.26 292.709 222.096 292.709 223.123 292.709C224.151 292.709 226.648 294.471 226.648 294.471C226.648 294.471 231.273 296.234 232.3 295.5C233.328 294.765 231.273 293.003 233.328 294.765C235.457 296.528 237.219 299.759 237.219 299.759L235.824 303.652L231.567 304.387C231.567 304.387 228.704 304.387 228.704 305.415C228.704 306.443 228.704 310.042 228.704 310.042V312.172L227.308 316.432L223.05 320.692L218.425 323.557L216.003 323.336L215.562 324.952L218.058 328.845L219.086 330.607L219.453 334.867L216.296 336.997C216.296 336.997 216.296 337.217 215.489 338.319L220.187 343.754L222.316 345.516L225.179 346.545L227.676 349.409L234.796 350.144H237.659C237.659 350.144 238.687 349.409 239.054 351.54C239.422 353.67 240.082 354.036 240.816 355.799C241.55 357.562 242.945 358.958 242.945 358.958L246.469 360.721L247.496 364.246L246.763 367.11L245.001 370.635L242.872 373.793L246.029 375.556C246.029 375.556 248.158 375.556 249.186 375.556C250.286 375.556 254.838 375.556 255.94 376.291C256.967 377.025 261.225 378.421 261.225 378.421L264.088 379.155H267.612L267.245 375.63L265.483 373.867L264.455 371.37L264.088 368.873H265.483L267.979 370.635L269.741 369.24L271.136 367.477L270.402 364.98L268.273 360.721L270.034 356.093L274.293 355.359L276.788 353.963V351.099L274.293 349.703L269.3 348.674L267.539 345.81L268.933 344.048L272.09 340.89L276.715 340.155L278.477 341.184L278.844 344.709L282.001 345.076L283.396 342.212L284.79 339.054L288.681 335.896L293.674 333.031H300.795C300.795 333.031 304.318 333.398 305.052 334.426C305.787 335.455 306.447 338.319 306.447 338.319V341.184L305.42 343.68L307.181 346.545L307.915 348.674C307.915 348.674 307.915 350.437 305.052 350.437C302.189 350.437 302.189 350.437 302.189 350.437L301.161 352.567C301.161 352.567 301.161 353.963 301.161 355.065C301.161 356.093 301.161 356.828 300.795 357.929C300.427 358.958 299.767 360.427 299.767 360.427C299.767 360.427 298.372 363.585 298.372 364.686C298.372 365.715 298.005 368.946 298.005 368.946L294.848 370.341L291.324 369.974L289.562 366.082L285.671 366.449L282.808 367.845L281.047 371.37L280.46 373.867L282.074 377.392L283.836 380.55L285.598 384.443L287.727 386.206L291.985 384.443L294.848 385.544C294.848 385.544 298.005 384.811 298.739 385.912C299.473 387.014 302.997 387.675 302.997 387.675H308.283L312.173 386.279C312.173 386.279 313.935 384.149 315.037 384.149C316.064 384.149 319.295 382.387 319.295 382.387L321.79 380.624C321.79 380.624 322.525 380.256 324.653 380.624C326.783 380.991 331.041 381.653 332.069 382.387C332.216 382.533 332.509 382.607 332.803 382.754L333.83 381.359L336.694 380.991C336.694 380.991 337.061 378.861 338.089 376.732C339.117 374.602 340.584 374.234 340.584 374.234C340.584 374.234 342.714 372.839 343.741 372.104C344.769 371.37 345.503 372.104 345.503 372.104L348.366 372.839C348.366 372.839 348.366 372.839 351.523 373.867C354.68 374.968 355.414 374.602 355.414 374.602L356.808 377.466C356.808 377.466 358.571 380.33 359.305 381.359C360.039 382.387 360.333 382.754 360.333 382.754L363.856 382.019L366.353 380.257L372.373 380.991L376.264 383.121L378.318 383.489L383.165 373.426L384.559 365.862L385.513 358.737L386.467 354.918L387.863 353.008L391.166 346.838L393.074 342.579L393.515 336.923L391.533 332.297Z" fill="white" stroke="#7B7B7B" stroke-miterlimit="10"/>
<path d="M78.26 569.656L73.0475 572.961L66.4403 572.521L60.7876 576.341C60.7876 576.341 59.3928 578.249 57.9245 578.69C56.5296 579.131 54.1071 581.555 54.1071 581.555L49.4086 585.815L44.7102 588.68L43.7559 593.894V599.109L47.5733 606.233L52.7855 608.583L57.484 608.143L59.3928 604.837C59.3928 604.837 64.0911 605.278 65.5594 605.278C66.9543 605.278 68.4225 604.837 75.9841 605.719C83.5455 606.673 89.7123 606.673 89.7123 606.673L94.4107 605.278C94.4107 605.278 98.6692 603.883 101.018 603.883C103.367 603.883 109.02 603.883 109.02 603.883L115.186 601.019L119.445 598.154L121.793 594.334L125.097 591.984L126.493 585.815V576.854L121.793 569.73L110.929 565.47L108.066 566.866L100.064 567.82H93.4564L88.244 568.775L78.26 569.656Z" fill="white" stroke="#7B7B7B" stroke-miterlimit="10"/>
<path d="M37.5372 494.98L36.1423 498.286L32.8388 500.636L29.9756 501.076C29.9756 501.076 29.5352 501.517 26.6721 502.986C23.809 504.381 22.4142 504.381 21.4598 505.85C20.5054 507.245 19.1106 506.805 18.5967 509.155C18.1561 511.506 18.1563 513.415 18.1563 513.415C18.1563 513.415 18.5967 515.766 19.551 517.235C20.5054 518.63 16.688 516.794 20.5054 518.63C24.3229 520.54 24.3229 520.981 27.6265 520.54C30.9301 520.099 35.188 519.144 35.188 519.144C35.188 519.144 36.1423 517.749 38.0511 517.749C39.9598 517.749 43.2635 518.189 43.7039 516.353C44.1445 514.443 43.7039 514.003 44.6582 512.535C45.6127 511.138 47.0075 506.879 47.0075 506.879L45.6127 501.664L42.7496 498.359L37.5372 494.98Z" fill="white" stroke="#7B7B7B" stroke-miterlimit="10"/>
<path d="M27.5516 419.624L23.2936 419.992L20.1369 422.856C20.1369 422.856 18.375 424.618 18.375 425.721C18.375 426.748 19.7699 429.98 19.7699 429.98L23.2936 430.347L26.4504 429.32L28.2123 425.427L29.2401 422.929L27.5516 419.624Z" fill="white" stroke="#7B7B7B" stroke-miterlimit="10"/>
<path d="M44.2161 419.992L40.6924 422.489C40.6924 422.489 40.3253 423.885 38.9304 424.986C37.5356 426.015 34.6725 426.381 34.6725 426.381L32.9106 426.015L31.8828 428.511C31.8828 428.511 32.9106 430.274 34.0117 431.009C35.0395 431.743 36.8748 431.375 37.1685 432.404C37.5355 433.432 38.9304 435.562 38.9304 435.562L40.6924 435.93L42.4542 434.167L44.5832 432.037L46.7122 430.641L48.8412 429.907L50.6032 428.144L50.9702 425.28L50.6032 421.754L46.3451 420.727L44.2161 419.992Z" fill="white" stroke="#7B7B7B" stroke-miterlimit="10"/>
<path d="M29.3868 431.375L26.8906 432.404V435.636L29.0196 437.766L30.4145 439.896L32.9105 441.291L33.5712 439.896L33.9383 436.665V434.167L29.3868 431.375Z" fill="white" stroke="#7B7B7B" stroke-miterlimit="10"/>
<path d="M25.7917 439.896L25.1309 443.054L27.2599 444.449L28.6548 443.054V440.924L27.2599 439.896H25.7917Z" fill="white" stroke="#7B7B7B" stroke-miterlimit="10"/>
<path d="M42.8214 451.206H45.6845L47.0794 452.602L47.4464 454.732L48.1806 456.862V458.992L45.6845 461.856L42.5278 459.726C42.5278 459.726 41.5 459.359 40.3988 459.359C39.371 459.359 34.3789 457.597 34.3789 457.597L35.1131 455.834H38.2698L40.7659 454.805L42.8214 451.206Z" fill="white" stroke="#7B7B7B" stroke-miterlimit="10"/>
<path d="M16.6152 445.918L11.9902 448.783V453.41C11.9902 453.41 13.7521 456.274 14.8533 455.54C15.881 454.805 17.3493 454.805 18.3772 454.511C19.4049 454.145 21.5339 451.647 21.5339 451.647L21.1668 447.387L16.6152 445.918Z" fill="white" stroke="#7B7B7B" stroke-miterlimit="10"/>
<path d="M24.0269 453.336L21.8979 454.731L19.0349 456.862L18.3008 460.02C18.3008 460.02 20.7967 461.416 21.8246 461.416C22.8523 461.416 24.9813 459.286 24.9813 459.286L26.7432 456.788V455.393L25.7155 453.63L24.0269 453.336Z" fill="white" stroke="#7B7B7B" stroke-miterlimit="10"/>
<path d="M23.0018 466.116C23.0018 466.116 19.4781 467.144 19.8452 468.245C20.2122 469.274 22.3412 470.743 22.3412 470.743L24.8371 472.873L27.7003 474.636C27.7003 474.636 28.7281 473.535 29.0952 472.506C29.4622 471.478 28.0673 468.245 28.0673 468.245L23.0018 466.116Z" fill="white" stroke="#7B7B7B" stroke-miterlimit="10"/>
<path d="M8.46467 460.828L5.96852 462.958C5.96852 462.958 0.97644 462.223 0.97644 463.692C0.97644 465.087 0.609375 468.32 0.609375 468.32H4.1332C4.1332 468.32 6.62935 466.924 7.6571 466.924C8.68484 466.924 11.5479 465.822 11.5479 465.822L10.5202 461.562L8.46467 460.828Z" fill="white" stroke="#7B7B7B" stroke-miterlimit="10"/>
<path d="M7.73043 470.009L3.83951 472.873L3.10547 477.5L5.96854 479.263C5.96854 479.263 9.85946 479.997 9.85946 477.867C9.85946 475.737 10.8872 471.478 10.8872 471.478L7.73043 470.009Z" fill="white" stroke="#7B7B7B" stroke-miterlimit="10"/>
<path d="M24.3945 478.529C24.3945 478.529 21.5314 479.557 21.2378 481.687C20.8707 483.817 22.6326 486.681 22.6326 486.681H26.1564L30.4144 482.422L28.6524 479.263L24.3945 478.529Z" fill="white" stroke="#7B7B7B" stroke-miterlimit="10"/>
<path d="M15.8795 483.523C15.8795 483.523 13.7505 485.286 14.1175 486.387C14.4847 487.416 14.4847 491.381 14.4847 491.381L12.7227 494.906C12.7227 494.906 13.4568 498.799 14.1175 497.772C14.8517 496.743 16.6136 494.906 16.6136 494.906C16.6136 494.906 19.7705 493.511 19.7705 492.41C19.7705 491.381 18.7426 487.783 18.7426 487.783L18.0084 484.918L15.8795 483.523Z" fill="white" stroke="#7B7B7B" stroke-miterlimit="10"/>
<path d="M78.2814 519.291L74.0234 521.054V525.681C74.0234 525.681 75.0512 528.839 76.1524 529.94C77.1802 530.969 77.9144 532.438 79.6763 532.805C81.4381 533.173 85.329 532.805 85.329 532.805C85.329 532.805 84.5949 531.043 86.3568 531.043C88.1187 531.043 88.4858 530.675 89.5136 531.41C90.5413 532.144 92.3767 532.805 93.4044 532.805C94.4323 532.805 95.901 531.41 95.901 530.308C95.901 529.28 94.5056 526.782 94.5056 526.782L89.5136 527.15L83.8608 526.048L81.7317 521.788L78.2814 519.291Z" fill="white" stroke="#7B7B7B" stroke-miterlimit="10"/>
<path d="M89.9534 516.5L87.0904 518.262L86.0625 521.788C86.0625 521.788 86.4296 523.183 88.5585 523.183C90.6876 523.183 94.2114 521.42 94.2114 521.42L92.4495 518.262L89.9534 516.5Z" fill="white" stroke="#7B7B7B" stroke-miterlimit="10"/>
<path d="M98.1012 520.026C98.1012 520.026 96.7066 522.891 97.367 523.918C98.1012 524.946 98.7626 526.782 100.891 526.782C103.02 526.782 105.149 526.415 105.149 525.387C105.149 524.359 104.782 521.494 104.782 521.494L100.157 520.76L98.1012 520.026Z" fill="white" stroke="#7B7B7B" stroke-miterlimit="10"/>
<path d="M111.242 524.653L110.215 527.15L112.344 530.308L116.235 530.675L119.024 528.545L117.262 526.783L113.738 525.681L111.242 524.653Z" fill="white" stroke="#7B7B7B" stroke-miterlimit="10"/>
<path d="M131.432 511.506L126.147 512.534C126.147 512.534 123.65 512.534 123.284 513.562C122.916 514.59 122.916 514.296 122.916 516.426C122.916 518.557 122.916 518.557 122.916 518.557L126.807 519.584C126.807 519.584 130.698 519.584 131.799 519.584C132.827 519.584 134.295 518.851 134.295 518.851L136.058 515.325L135.69 513.195L131.432 511.506Z" fill="white" stroke="#7B7B7B" stroke-miterlimit="10"/>
<path d="M160.135 508.348L158.373 510.478L159.107 514.004L162.631 516.134L163.732 513.269L161.97 510.111L160.135 508.348Z" fill="white" stroke="#7B7B7B" stroke-miterlimit="10"/>
<path d="M194.2 493.071C194.2 493.071 190.309 493.805 189.941 494.834C189.575 495.862 188.547 496.229 188.547 497.992C188.547 499.755 188.547 501.885 188.547 501.885L192.07 505.41H195.595L196.623 501.518V497.992L196.989 494.834L194.2 493.071Z" fill="white" stroke="#7B7B7B" stroke-miterlimit="10"/>
<path d="M183.922 503.72L180.031 504.749V507.98L182.16 508.642L184.949 507.613L185.317 505.116L183.922 503.72Z" fill="white" stroke="#7B7B7B" stroke-miterlimit="10"/>
<path d="M209.103 463.251L205.58 465.381C205.58 465.381 202.055 467.144 201.321 468.246C200.587 469.274 200.293 472.506 200.293 472.506L200.661 476.031L203.156 479.189L202.129 484.184L203.156 488.076C203.156 488.076 204.918 489.105 206.313 488.811C207.708 488.444 209.837 487.783 209.837 487.783L212.994 483.523C212.994 483.523 214.389 486.021 214.389 487.048C214.389 488.076 215.417 489.546 215.417 489.546L218.573 490.28C218.573 490.28 222.097 492.043 223.199 492.043C224.225 492.043 224.593 489.912 224.593 489.912L225.621 486.387V482.128V478.97L222.758 478.235L217.766 477.5L214.242 475.737L211.085 472.579V470.449L212.479 467.585L212.113 463.325H209.103V463.251Z" fill="white" stroke="#7B7B7B" stroke-miterlimit="10"/>
<path d="M222.243 466.116C222.243 466.116 218.352 466.85 217.984 467.879C217.618 468.907 215.855 471.772 216.957 472.506C217.984 473.241 220.847 474.636 220.847 474.636C220.847 474.636 225.106 475.37 226.134 475.664C227.161 476.031 228.997 472.506 228.997 472.506L224.738 470.009V467.879L222.243 466.116Z" fill="white" stroke="#7B7B7B" stroke-miterlimit="10"/>
<path d="M284.278 472.139L278.993 470.376C278.993 470.376 275.102 470.743 274 471.404C272.973 472.139 271.137 474.268 271.137 475.297C271.137 476.325 272.239 480.585 272.239 480.585L275.395 483.449L278.919 480.953L281.782 480.218C281.782 480.218 283.176 484.478 282.149 484.845C281.122 485.212 278.625 485.873 278.625 485.873V488.004L280.754 489.031V492.557L279.359 495.715L282.222 497.845L285.746 496.817L286.774 492.189L288.169 487.563L290.665 484.698L293.528 488.223H295.657L297.052 485.359L296.024 482.861V480.365L298.52 478.602L299.254 476.839L298.887 475.077L295.363 476.472L293.234 474.709L295.731 471.845L296.759 469.348L294.996 465.822L293.968 462.958L295.363 460.093L293.968 456.568C293.968 456.568 291.84 457.303 291.473 458.698C291.105 460.093 290.077 461.563 290.077 461.563L287.949 460.534L285.452 459.8L285.085 464.427L285.82 466.19L283.323 467.217L284.278 472.139Z" fill="white" stroke="#7B7B7B" stroke-miterlimit="10"/>
<path d="M309.752 455.099C309.752 455.099 304.76 455.834 304.76 456.862C304.76 457.891 306.522 461.488 306.522 461.488L310.045 461.122L310.78 457.597L309.752 455.099Z" fill="white" stroke="#7B7B7B" stroke-miterlimit="10"/>
<path d="M269.373 484.918C269.373 484.918 269.373 488.076 269.373 489.179C269.373 490.28 272.53 489.179 272.53 489.179V485.286L270.769 483.89L269.373 484.918Z" fill="white" stroke="#7B7B7B" stroke-miterlimit="10"/>
<path d="M473.844 220.951L469.953 221.318L465.695 223.447C465.695 223.447 464.3 225.945 464.961 227.708C465.695 229.47 465.989 229.47 468.117 230.572C470.246 231.601 470.246 232.334 472.375 232.334C474.504 232.334 477.368 231.307 477.661 230.205C477.954 229.103 479.056 227.34 479.056 226.312C479.056 225.284 478.322 222.052 478.322 222.052L473.844 220.951Z" fill="white" stroke="#7B7B7B" stroke-miterlimit="10"/>
<path d="M503.574 235.424C503.574 235.424 501.812 234.689 501.445 237.554C501.078 240.418 502.839 241.814 502.839 241.814C502.839 241.814 505.336 243.944 505.996 242.549C506.73 241.153 507.024 239.391 507.024 239.391L506.657 236.232L503.574 235.424Z" fill="white" stroke="#7B7B7B" stroke-miterlimit="10"/>
<path d="M71.5257 265.754L68.002 267.884L69.3968 271.042L74.0218 270.308V266.783L71.5257 265.754Z" fill="white" stroke="#7B7B7B" stroke-miterlimit="10"/>
<path d="M190.674 509.009L187.517 510.772C187.517 510.772 186.783 512.901 187.885 513.636C188.913 514.371 191.408 516.134 191.408 516.134L195.299 517.529L196.033 514.664L195.005 511.8L190.674 509.009Z" fill="white" stroke="#7B7B7B" stroke-miterlimit="10"/>
</svg>
